<svg width="94" height="33" viewBox="0 0 94 33" fill="none" xmlns="http://www.w3.org/2000/svg">
<path d="M5.8206 20.6607L1.10691 23.4296C1.04068 23.4685 1 23.5396 1 23.6164V32.1757C1 32.2953 1.09699 32.3923 1.21664 32.3923H10.8019M5.8206 20.6607V4.03697C5.8206 3.96 5.86144 3.88881 5.92789 3.84996L10.8019 1M5.8206 20.6607L10.8019 23.4924M10.8019 1L15.6759 3.84996C15.7423 3.88881 15.7832 3.96 15.7832 4.03697V8.76718M10.8019 1V11.6799M15.7832 32.3923H10.8019M15.7832 32.3923V19.0425M15.7832 32.3923H20.7243M10.8019 32.3923V23.4924M20.7645 16.1298L25.5594 18.9795C25.6251 19.0186 25.6654 19.0893 25.6654 19.1658V32.1757C25.6654 32.2953 25.5684 32.3923 25.4488 32.3923H20.7243M20.7645 16.1298L15.7832 19.0425M20.7645 16.1298L20.7243 32.3923M20.7645 16.1298V11.8041C20.7645 11.7272 20.7236 11.656 20.6572 11.6171L15.7832 8.76718M15.7832 19.0425V8.76718M15.7832 8.76718L10.8019 11.6799M10.8019 11.6799V23.4924" stroke="black" stroke-width="1.08319"/>
<path d="M32.4884 1V32.3923" stroke="#1A1A1A" stroke-width="0.758231" stroke-linecap="round"/>
<path d="M37.4867 5.89685H40.0047C40.6563 5.89685 41.1869 6.10164 41.5965 6.51122C42.0092 6.9208 42.2155 7.4514 42.2155 8.103C42.2155 8.75771 42.0061 9.2914 41.5872 9.70409C41.1714 10.1137 40.6331 10.3185 39.9721 10.3185H38.5293V12.613H37.4867V5.89685ZM38.5293 6.77652V9.44345H39.7255C40.1785 9.44345 40.5291 9.32709 40.7773 9.09437C41.0256 8.86166 41.1497 8.53275 41.1497 8.10766C41.1497 7.68566 41.0256 7.35831 40.7773 7.12559C40.5322 6.89288 40.1831 6.77652 39.7301 6.77652H38.5293ZM47.5028 11.7101V12.613H43.2395V5.89685H47.5028V6.79514H44.282V8.75926H47.3306V9.62496H44.282V11.7101H47.5028ZM55.471 12.613H54.5169V7.67015H54.4843L52.4597 12.5618H51.6871L49.6578 7.67015H49.6252V12.613H48.6757V5.89685H49.8812L52.0548 11.1981H52.092L54.2609 5.89685H55.471V12.613ZM59.7065 5.78515C60.6715 5.78515 61.4363 6.09699 62.001 6.72067C62.5689 7.34435 62.8528 8.18988 62.8528 9.25727C62.8528 10.3247 62.5704 11.1702 62.0057 11.7939C61.441 12.4145 60.6746 12.7247 59.7065 12.7247C58.7384 12.7247 57.9719 12.4145 57.4072 11.7939C56.8425 11.1702 56.5601 10.3247 56.5601 9.25727C56.5601 8.18988 56.8425 7.34435 57.4072 6.72067C57.9719 6.09699 58.7384 5.78515 59.7065 5.78515ZM59.7065 6.70205C59.0673 6.70205 58.5599 6.93166 58.1845 7.39089C57.8121 7.85012 57.626 8.47224 57.626 9.25727C57.626 10.0392 57.8121 10.6598 58.1845 11.119C58.5599 11.5782 59.0673 11.8078 59.7065 11.8078C60.3425 11.8078 60.8468 11.5782 61.2191 11.119C61.5946 10.6598 61.7823 10.0392 61.7823 9.25727C61.7823 8.47224 61.5946 7.85012 61.2191 7.39089C60.8468 6.93166 60.3425 6.70205 59.7065 6.70205ZM69.4759 12.613H68.4333V9.63893H64.9845V12.613H63.9419V5.89685H64.9845V8.73599H68.4333V5.89685H69.4759V12.613ZM73.5112 12.613H72.4686V6.79514H70.4114V5.89685H75.5637V6.79514H73.5112V12.613Z" fill="#1A1A1A"/>
<path d="M39.5951 19.2267L42.8252 22.7407H41.4615L38.5665 19.5897H38.5293V22.7407H37.4867V16.0245H38.5293V19.0312H38.5665L41.3033 16.0245H42.5506L39.5951 19.2267ZM43.5932 16.0245H46.1112C46.7628 16.0245 47.2934 16.2293 47.703 16.6389C48.1157 17.0485 48.322 17.5791 48.322 18.2307C48.322 18.8854 48.1125 19.4191 47.6937 19.8318C47.2779 20.2414 46.7395 20.4461 46.0786 20.4461H44.6358V22.7407H43.5932V16.0245ZM44.6358 16.9042V19.5711H45.8319C46.285 19.5711 46.6356 19.4548 46.8838 19.2221C47.132 18.9893 47.2562 18.6604 47.2562 18.2353C47.2562 17.8133 47.132 17.486 46.8838 17.2533C46.6387 17.0206 46.2896 16.9042 45.8366 16.9042H44.6358ZM53.1997 22.7407L52.5853 20.9255H50.0255L49.4111 22.7407H48.3266L50.7515 16.0245H51.8779L54.3028 22.7407H53.1997ZM51.2914 17.1416L50.2908 20.0878H52.3201L51.3194 17.1416H51.2914ZM57.747 22.8664C56.8037 22.8664 56.0544 22.553 55.499 21.9262C54.9466 21.2994 54.6705 20.4508 54.6705 19.3803C54.6705 18.316 54.9482 17.4705 55.5036 16.8437C56.0621 16.2138 56.8099 15.8989 57.747 15.8989C58.4855 15.8989 59.1138 16.1052 59.632 16.5179C60.1533 16.9275 60.4698 17.4674 60.5815 18.1376H59.5342C59.4256 17.7404 59.2084 17.4224 58.8826 17.1835C58.5599 16.9445 58.1814 16.8251 57.747 16.8251C57.1357 16.8251 56.647 17.0578 56.2809 17.5232C55.9178 17.9856 55.7363 18.6046 55.7363 19.3803C55.7363 20.1653 55.9178 20.789 56.2809 21.2513C56.6439 21.7106 57.1342 21.9402 57.7516 21.9402C58.1985 21.9402 58.577 21.8362 58.8873 21.6283C59.2007 21.4204 59.4163 21.1288 59.5342 20.7533H60.5815C60.4356 21.4204 60.1145 21.9402 59.618 22.3125C59.1247 22.6818 58.501 22.8664 57.747 22.8664ZM67.158 22.7407H66.1155V19.7666H62.6666V22.7407H61.624V16.0245H62.6666V18.8637H66.1155V16.0245H67.158V22.7407ZM71.3888 15.9128C72.3538 15.9128 73.1187 16.2247 73.6834 16.8484C74.2512 17.472 74.5351 18.3176 74.5351 19.385C74.5351 20.4523 74.2528 21.2979 73.688 21.9216C73.1233 22.5421 72.3569 22.8524 71.3888 22.8524C70.4207 22.8524 69.6543 22.5421 69.0896 21.9216C68.5248 21.2979 68.2425 20.4523 68.2425 19.385C68.2425 18.3176 68.5248 17.472 69.0896 16.8484C69.6543 16.2247 70.4207 15.9128 71.3888 15.9128ZM71.3888 16.8297C70.7496 16.8297 70.2423 17.0593 69.8668 17.5186C69.4945 17.9778 69.3083 18.5999 69.3083 19.385C69.3083 20.1669 69.4945 20.7875 69.8668 21.2467C70.2423 21.7059 70.7496 21.9355 71.3888 21.9355C72.0249 21.9355 72.5291 21.7059 72.9015 21.2467C73.2769 20.7875 73.4646 20.1669 73.4646 19.385C73.4646 18.5999 73.2769 17.9778 72.9015 17.5186C72.5291 17.0593 72.0249 16.8297 71.3888 16.8297ZM76.9367 20.1436C76.9119 20.5594 76.8669 20.8961 76.8018 21.1536C76.7366 21.408 76.628 21.6237 76.476 21.8006V21.8378H79.5478V16.9228H77.1415L76.9367 20.1436ZM75.7406 22.7407V24.0672H74.7818V21.8378H75.2705C75.5001 21.7044 75.6661 21.498 75.7685 21.2188C75.874 20.9395 75.9407 20.5656 75.9687 20.0971L76.2153 16.0245H80.5904V21.8378H81.4282V24.0672H80.474V22.7407H75.7406ZM86.7201 22.7407L86.1058 20.9255H83.5459L82.9315 22.7407H81.8471L84.272 16.0245H85.3983L87.8232 22.7407H86.7201ZM84.8119 17.1416L83.8112 20.0878H85.8405L84.8398 17.1416H84.8119ZM88.6563 16.0245H91.1743C91.8259 16.0245 92.3565 16.2293 92.7661 16.6389C93.1788 17.0485 93.3851 17.5791 93.3851 18.2307C93.3851 18.8854 93.1757 19.4191 92.7568 19.8318C92.341 20.2414 91.8026 20.4461 91.1417 20.4461H89.6989V22.7407H88.6563V16.0245ZM89.6989 16.9042V19.5711H90.8951C91.3481 19.5711 91.6987 19.4548 91.9469 19.2221C92.1952 18.9893 92.3193 18.6604 92.3193 18.2353C92.3193 17.8133 92.1952 17.486 91.9469 17.2533C91.7018 17.0206 91.3527 16.9042 90.8997 16.9042H89.6989Z" fill="#1A1A1A"/>
<path d="M37.0632 26.2135H37.9788C38.2158 26.2135 38.4087 26.288 38.5577 26.4369C38.7077 26.5859 38.7828 26.7788 38.7828 27.0157C38.7828 27.2538 38.7066 27.4479 38.5543 27.598C38.4031 27.7469 38.2073 27.8214 37.967 27.8214H37.4423V28.6558H37.0632V26.2135ZM37.4423 26.5334V27.5032H37.8773C38.042 27.5032 38.1695 27.4609 38.2598 27.3762C38.35 27.2916 38.3952 27.172 38.3952 27.0174C38.3952 26.864 38.35 26.745 38.2598 26.6603C38.1706 26.5757 38.0437 26.5334 37.879 26.5334H37.4423ZM40.1046 27.2662C40.0245 27.1805 39.9212 27.1376 39.7949 27.1376C39.6685 27.1376 39.5635 27.181 39.4801 27.2679C39.3966 27.3537 39.3503 27.4648 39.3413 27.6013H40.2315C40.227 27.4637 40.1847 27.352 40.1046 27.2662ZM40.2298 28.1328H40.5768C40.5508 28.2964 40.4673 28.4301 40.3263 28.5339C40.1853 28.6377 40.0132 28.6896 39.8101 28.6896C39.5494 28.6896 39.3441 28.6078 39.194 28.4442C39.0451 28.2795 38.9706 28.0561 38.9706 27.774C38.9706 27.4942 39.0451 27.2691 39.194 27.0987C39.3441 26.9283 39.5444 26.8431 39.7949 26.8431C40.0408 26.8431 40.236 26.9238 40.3805 27.0851C40.5249 27.2454 40.5971 27.4609 40.5971 27.7317V27.8569H39.3396V27.8789C39.3396 28.0346 39.383 28.1593 39.4699 28.253C39.5568 28.3466 39.673 28.3934 39.8185 28.3934C39.9212 28.3934 40.0092 28.3697 40.0826 28.3223C40.1559 28.275 40.205 28.2118 40.2298 28.1328ZM41.2622 28.6558H40.9102V26.8753H41.3689L41.9392 28.1802H41.9528L42.5265 26.8753H42.975V28.6558H42.6196V27.4203H42.6078L42.0746 28.5864H41.8072L41.2741 27.4203H41.2622V28.6558ZM44.7487 28.4425C44.5953 28.6072 44.3905 28.6896 44.1344 28.6896C43.8782 28.6896 43.6735 28.6072 43.52 28.4425C43.3666 28.2766 43.2898 28.051 43.2898 27.7655C43.2898 27.4812 43.3666 27.2566 43.52 27.0919C43.6735 26.926 43.8782 26.8431 44.1344 26.8431C44.3905 26.8431 44.5953 26.926 44.7487 27.0919C44.9022 27.2566 44.9789 27.4812 44.9789 27.7655C44.9789 28.051 44.9022 28.2766 44.7487 28.4425ZM44.1344 28.3883C44.2799 28.3883 44.395 28.3336 44.4796 28.2242C44.5643 28.1147 44.6066 27.9618 44.6066 27.7655C44.6066 27.5703 44.5637 27.418 44.4779 27.3085C44.3933 27.1991 44.2788 27.1444 44.1344 27.1444C43.9899 27.1444 43.8749 27.1991 43.7891 27.3085C43.7045 27.418 43.6622 27.5703 43.6622 27.7655C43.6622 27.9618 43.7045 28.1147 43.7891 28.2242C43.8749 28.3336 43.9899 28.3883 44.1344 28.3883ZM46.4632 28.6558V27.8806H45.6576V28.6558H45.2937V26.8753H45.6576V27.5929H46.4632V26.8753H46.8271V28.6558H46.4632ZM48.5771 26.8753V27.1647H48.0186V28.6558H47.6547V27.1647H47.0962V26.8753H48.5771ZM49.9091 28.6558H49.5486V26.8753H49.9091V28.1226H49.9227L50.7452 26.8753H51.1057V28.6558H50.7452V27.405H50.7317L49.9091 28.6558ZM53.5835 28.4425C53.43 28.6072 53.2252 28.6896 52.9691 28.6896C52.713 28.6896 52.5082 28.6072 52.3547 28.4425C52.2013 28.2766 52.1246 28.051 52.1246 27.7655C52.1246 27.4812 52.2013 27.2566 52.3547 27.0919C52.5082 26.926 52.713 26.8431 52.9691 26.8431C53.2252 26.8431 53.43 26.926 53.5835 27.0919C53.7369 27.2566 53.8137 27.4812 53.8137 27.7655C53.8137 28.051 53.7369 28.2766 53.5835 28.4425ZM52.9691 28.3883C53.1147 28.3883 53.2298 28.3336 53.3144 28.2242C53.399 28.1147 53.4413 27.9618 53.4413 27.7655C53.4413 27.5703 53.3984 27.418 53.3127 27.3085C53.2281 27.1991 53.1135 27.1444 52.9691 27.1444C52.8247 27.1444 52.7096 27.1991 52.6239 27.3085C52.5392 27.418 52.4969 27.5703 52.4969 27.7655C52.4969 27.9618 52.5392 28.1147 52.6239 28.2242C52.7096 28.3336 52.8247 28.3883 52.9691 28.3883ZM55.4215 26.8753V27.1647H54.863V28.6558H54.4991V27.1647H53.9406V26.8753H55.4215ZM56.8026 28.3663V27.1647H56.1831L56.1341 27.8451C56.1194 28.073 56.0731 28.2422 55.9953 28.3528V28.3663H56.8026ZM55.7905 29.1229H55.4537V28.3663H55.5975C55.7149 28.293 55.7837 28.1142 55.804 27.8298L55.8683 26.8753H57.1665V28.3663H57.4423V29.1229H57.1038V28.6558H55.7905V29.1229ZM58.7456 27.2662C58.6654 27.1805 58.5622 27.1376 58.4358 27.1376C58.3095 27.1376 58.2045 27.181 58.121 27.2679C58.0375 27.3537 57.9913 27.4648 57.9822 27.6013H58.8725C58.868 27.4637 58.8257 27.352 58.7456 27.2662ZM58.8708 28.1328H59.2178C59.1918 28.2964 59.1083 28.4301 58.9673 28.5339C58.8262 28.6377 58.6542 28.6896 58.4511 28.6896C58.1904 28.6896 57.9851 28.6078 57.835 28.4442C57.6861 28.2795 57.6116 28.0561 57.6116 27.774C57.6116 27.4942 57.6861 27.2691 57.835 27.0987C57.9851 26.9283 58.1853 26.8431 58.4358 26.8431C58.6818 26.8431 58.877 26.9238 59.0214 27.0851C59.1659 27.2454 59.2381 27.4609 59.2381 27.7317V27.8569H57.9806V27.8789C57.9806 28.0346 58.024 28.1593 58.1109 28.253C58.1978 28.3466 58.314 28.3934 58.4595 28.3934C58.5622 28.3934 58.6502 28.3697 58.7236 28.3223C58.7969 28.275 58.846 28.2118 58.8708 28.1328ZM60.0251 27.8451C60.0183 27.9511 60.0076 28.0448 59.9929 28.126C59.9782 28.2073 59.9568 28.2834 59.9286 28.3545C59.9004 28.4245 59.866 28.4826 59.8254 28.5288C59.7847 28.574 59.734 28.6095 59.673 28.6355C59.6132 28.6603 59.5438 28.6727 59.4649 28.6727C59.4152 28.6727 59.374 28.6665 59.3413 28.6541V28.3325C59.3718 28.3415 59.4039 28.346 59.4378 28.346C59.519 28.346 59.5788 28.302 59.6172 28.214C59.6555 28.126 59.6804 27.998 59.6917 27.8298L59.7526 26.8753H60.9864V28.6558H60.6225V27.1647H60.0742L60.0251 27.8451ZM62.1017 27.7114L62.9209 28.6558H62.4622L61.7565 27.8349H61.7429V28.6558H61.3791V26.8753H61.7429V27.6369H61.7565L62.4538 26.8753H62.8904L62.1017 27.7114ZM63.7299 28.3968C63.8585 28.3968 63.9663 28.3579 64.0532 28.28C64.1412 28.201 64.1852 28.104 64.1852 27.9889V27.8484L63.7468 27.8755C63.6374 27.8834 63.5528 27.9105 63.493 27.9568C63.4343 28.0019 63.405 28.0628 63.405 28.1396C63.405 28.2174 63.4343 28.28 63.493 28.3274C63.5528 28.3737 63.6317 28.3968 63.7299 28.3968ZM63.6284 28.6862C63.4535 28.6862 63.3107 28.6366 63.2002 28.5373C63.0907 28.438 63.036 28.3088 63.036 28.1497C63.036 27.994 63.0935 27.8705 63.2086 27.7791C63.3237 27.6865 63.4868 27.6346 63.6978 27.6233L64.1852 27.5946V27.4575C64.1852 27.3582 64.1536 27.2809 64.0904 27.2256C64.0272 27.1692 63.9398 27.141 63.8281 27.141C63.7243 27.141 63.6396 27.1641 63.5742 27.2104C63.5099 27.2566 63.4693 27.3204 63.4523 27.4016H63.1071C63.1172 27.2369 63.1883 27.1026 63.3203 26.9988C63.4523 26.895 63.6261 26.8431 63.8416 26.8431C64.0571 26.8431 64.2286 26.8961 64.3561 27.0022C64.4848 27.1083 64.5491 27.2504 64.5491 27.4287V28.6558H64.1987V28.363H64.1903C64.1395 28.4611 64.0622 28.5395 63.9584 28.5982C63.8557 28.6569 63.7457 28.6862 63.6284 28.6862ZM66.1755 27.8451C66.1688 27.9511 66.1581 28.0448 66.1434 28.126C66.1287 28.2073 66.1073 28.2834 66.0791 28.3545C66.0509 28.4245 66.0164 28.4826 65.9758 28.5288C65.9352 28.574 65.8844 28.6095 65.8235 28.6355C65.7637 28.6603 65.6943 28.6727 65.6153 28.6727C65.5657 28.6727 65.5245 28.6665 65.4918 28.6541V28.3325C65.5222 28.3415 65.5544 28.346 65.5883 28.346C65.6695 28.346 65.7293 28.302 65.7677 28.214C65.806 28.126 65.8308 27.998 65.8421 27.8298L65.9031 26.8753H67.1369V28.6558H66.773V27.1647H66.2246L66.1755 27.8451ZM69.0155 28.6896C68.7763 28.6896 68.5839 28.6185 68.4384 28.4764C68.2928 28.3331 68.2099 28.1345 68.1896 27.8806H67.8934V28.6558H67.5295V26.8753H67.8934V27.5929H68.1964C68.2257 27.3571 68.3126 27.1731 68.457 27.0411C68.6014 26.9091 68.7876 26.8431 69.0155 26.8431C69.2739 26.8431 69.477 26.9255 69.6248 27.0902C69.7738 27.2538 69.8482 27.4789 69.8482 27.7655C69.8482 28.0532 69.7738 28.2795 69.6248 28.4442C69.477 28.6078 69.2739 28.6896 69.0155 28.6896ZM68.677 28.2225C68.7571 28.3297 68.87 28.3833 69.0155 28.3833C69.1611 28.3833 69.2739 28.3297 69.354 28.2225C69.4341 28.1142 69.4742 27.9618 69.4742 27.7655C69.4742 27.5692 69.4341 27.4174 69.354 27.3102C69.2739 27.203 69.1611 27.1495 69.0155 27.1495C68.87 27.1495 68.7571 27.203 68.677 27.3102C68.598 27.4174 68.5586 27.5692 68.5586 27.7655C68.5586 27.9618 68.598 28.1142 68.677 28.2225ZM70.9568 28.6896C70.677 28.6896 70.4637 28.5993 70.317 28.4188C70.1715 28.2383 70.0987 27.9726 70.0987 27.6217C70.0987 27.2911 70.132 27.0242 70.1986 26.8211C70.2663 26.6169 70.3701 26.4657 70.51 26.3675C70.651 26.2694 70.8355 26.2163 71.0634 26.2084L71.2225 26.2034C71.4425 26.1932 71.5977 26.1639 71.6879 26.1153V26.4183C71.6643 26.4409 71.6107 26.4612 71.5272 26.4792C71.4437 26.4973 71.3489 26.5086 71.2428 26.5131L71.0871 26.5182C70.9686 26.5227 70.8688 26.5396 70.7876 26.5689C70.7074 26.5971 70.6409 26.6423 70.5878 26.7043C70.5348 26.7653 70.4936 26.8392 70.4643 26.926C70.435 27.0118 70.4118 27.1201 70.3949 27.251H70.4084C70.4649 27.1461 70.545 27.066 70.6488 27.0107C70.7537 26.9543 70.8761 26.926 71.016 26.926C71.2564 26.926 71.4476 27.0039 71.5898 27.1596C71.7331 27.3153 71.8047 27.5241 71.8047 27.7858C71.8047 28.0657 71.7291 28.2862 71.5779 28.4476C71.4267 28.6089 71.2197 28.6896 70.9568 28.6896ZM70.9534 28.3833C71.1046 28.3833 71.222 28.3319 71.3054 28.2293C71.3889 28.1255 71.4307 27.9793 71.4307 27.7909C71.4307 27.6115 71.3889 27.4722 71.3054 27.3729C71.222 27.2736 71.1046 27.2239 70.9534 27.2239C70.8011 27.2239 70.6826 27.2736 70.598 27.3729C70.5145 27.4722 70.4727 27.6115 70.4727 27.7909C70.4727 27.9805 70.5145 28.1266 70.598 28.2293C70.6826 28.3319 70.8011 28.3833 70.9534 28.3833ZM73.5006 28.4425C73.3471 28.6072 73.1424 28.6896 72.8862 28.6896C72.6301 28.6896 72.4253 28.6072 72.2719 28.4425C72.1184 28.2766 72.0417 28.051 72.0417 27.7655C72.0417 27.4812 72.1184 27.2566 72.2719 27.0919C72.4253 26.926 72.6301 26.8431 72.8862 26.8431C73.1424 26.8431 73.3471 26.926 73.5006 27.0919C73.654 27.2566 73.7308 27.4812 73.7308 27.7655C73.7308 28.051 73.654 28.2766 73.5006 28.4425ZM72.8862 28.3883C73.0318 28.3883 73.1469 28.3336 73.2315 28.2242C73.3161 28.1147 73.3584 27.9618 73.3584 27.7655C73.3584 27.5703 73.3155 27.418 73.2298 27.3085C73.1452 27.1991 73.0306 27.1444 72.8862 27.1444C72.7418 27.1444 72.6267 27.1991 72.541 27.3085C72.4563 27.418 72.414 27.5703 72.414 27.7655C72.414 27.9618 72.4563 28.1147 72.541 28.2242C72.6267 28.3336 72.7418 28.3883 72.8862 28.3883ZM74.4061 28.6558H74.0456V26.8753H74.4061V28.1226H74.4196L75.2422 26.8753H75.6027V28.6558H75.2422V27.405H75.2286L74.4061 28.6558ZM74.2876 26.0933H74.5347C74.5358 26.1904 74.5652 26.2711 74.6227 26.3354C74.6803 26.3986 74.7559 26.4302 74.8495 26.4302C74.9443 26.4302 75.0204 26.3986 75.078 26.3354C75.1355 26.2711 75.1649 26.1904 75.166 26.0933H75.4131C75.4131 26.2536 75.3612 26.3833 75.2574 26.4826C75.1536 26.5808 75.0176 26.6299 74.8495 26.6299C74.6825 26.6299 74.5471 26.5808 74.4433 26.4826C74.3395 26.3833 74.2876 26.2536 74.2876 26.0933ZM78.2192 27.4456H77.8672C77.8424 27.3576 77.795 27.286 77.725 27.2307C77.6551 27.1754 77.5659 27.1478 77.4576 27.1478C77.3166 27.1478 77.2032 27.2042 77.1174 27.317C77.0328 27.4287 76.9905 27.5782 76.9905 27.7655C76.9905 27.9573 77.0328 28.1085 77.1174 28.2191C77.2032 28.3285 77.3177 28.3833 77.461 28.3833C77.5682 28.3833 77.6568 28.3579 77.7267 28.3071C77.7967 28.2552 77.8446 28.1824 77.8706 28.0888H78.2226C78.1967 28.2693 78.1143 28.4149 77.9755 28.5254C77.8379 28.6349 77.6652 28.6896 77.4576 28.6896C77.2015 28.6896 76.9978 28.6067 76.8466 28.4408C76.6954 28.275 76.6198 28.0499 76.6198 27.7655C76.6198 27.4857 76.6954 27.2623 76.8466 27.0953C76.999 26.9272 77.2015 26.8431 77.4542 26.8431C77.6652 26.8431 77.8384 26.9007 77.9738 27.0157C78.1103 27.1297 78.1922 27.273 78.2192 27.4456ZM79.0418 27.8451C79.035 27.9511 79.0243 28.0448 79.0096 28.126C78.995 28.2073 78.9735 28.2834 78.9453 28.3545C78.9171 28.4245 78.8827 28.4826 78.8421 28.5288C78.8014 28.574 78.7507 28.6095 78.6897 28.6355C78.6299 28.6603 78.5605 28.6727 78.4816 28.6727C78.4319 28.6727 78.3907 28.6665 78.358 28.6541V28.3325C78.3885 28.3415 78.4206 28.346 78.4545 28.346C78.5357 28.346 78.5955 28.302 78.6339 28.214C78.6723 28.126 78.6971 27.998 78.7084 27.8298L78.7693 26.8753H80.0031V28.6558H79.6392V27.1647H79.0909L79.0418 27.8451ZM81.7768 28.4425C81.6234 28.6072 81.4186 28.6896 81.1625 28.6896C80.9063 28.6896 80.7015 28.6072 80.5481 28.4425C80.3946 28.2766 80.3179 28.051 80.3179 27.7655C80.3179 27.4812 80.3946 27.2566 80.5481 27.0919C80.7015 26.926 80.9063 26.8431 81.1625 26.8431C81.4186 26.8431 81.6234 26.926 81.7768 27.0919C81.9303 27.2566 82.007 27.4812 82.007 27.7655C82.007 28.051 81.9303 28.2766 81.7768 28.4425ZM81.1625 28.3883C81.308 28.3883 81.4231 28.3336 81.5077 28.2242C81.5923 28.1147 81.6347 27.9618 81.6347 27.7655C81.6347 27.5703 81.5918 27.418 81.506 27.3085C81.4214 27.1991 81.3069 27.1444 81.1625 27.1444C81.018 27.1444 80.9029 27.1991 80.8172 27.3085C80.7326 27.418 80.6903 27.5703 80.6903 27.7655C80.6903 27.9618 80.7326 28.1147 80.8172 28.2242C80.9029 28.3336 81.018 28.3883 81.1625 28.3883ZM83.9093 27.7114L84.6693 28.6558H84.2157L83.5607 27.8349H83.5472V28.6558H83.1867V27.8349H83.1748L82.5198 28.6558H82.073L82.8279 27.7181L82.0933 26.8753H82.5283L83.1748 27.6369H83.1867V26.8753H83.5472V27.6369H83.5607L84.2072 26.8753H84.6388L83.9093 27.7114ZM86.2213 28.4425C86.0678 28.6072 85.863 28.6896 85.6069 28.6896C85.3508 28.6896 85.146 28.6072 84.9925 28.4425C84.8391 28.2766 84.7624 28.051 84.7624 27.7655C84.7624 27.4812 84.8391 27.2566 84.9925 27.0919C85.146 26.926 85.3508 26.8431 85.6069 26.8431C85.863 26.8431 86.0678 26.926 86.2213 27.0919C86.3747 27.2566 86.4515 27.4812 86.4515 27.7655C86.4515 28.051 86.3747 28.2766 86.2213 28.4425ZM85.6069 28.3883C85.7525 28.3883 85.8675 28.3336 85.9522 28.2242C86.0368 28.1147 86.0791 27.9618 86.0791 27.7655C86.0791 27.5703 86.0362 27.418 85.9505 27.3085C85.8659 27.1991 85.7513 27.1444 85.6069 27.1444C85.4625 27.1444 85.3474 27.1991 85.2616 27.3085C85.177 27.418 85.1347 27.5703 85.1347 27.7655C85.1347 27.9618 85.177 28.1147 85.2616 28.2242C85.3474 28.3336 85.4625 28.3883 85.6069 28.3883ZM88.2861 27.4456H87.9341C87.9092 27.3576 87.8619 27.286 87.7919 27.2307C87.7219 27.1754 87.6328 27.1478 87.5245 27.1478C87.3834 27.1478 87.27 27.2042 87.1843 27.317C87.0997 27.4287 87.0574 27.5782 87.0574 27.7655C87.0574 27.9573 87.0997 28.1085 87.1843 28.2191C87.27 28.3285 87.3846 28.3833 87.5279 28.3833C87.6351 28.3833 87.7236 28.3579 87.7936 28.3071C87.8635 28.2552 87.9115 28.1824 87.9375 28.0888H88.2895C88.2635 28.2693 88.1812 28.4149 88.0424 28.5254C87.9047 28.6349 87.7321 28.6896 87.5245 28.6896C87.2684 28.6896 87.0647 28.6067 86.9135 28.4408C86.7623 28.275 86.6867 28.0499 86.6867 27.7655C86.6867 27.4857 86.7623 27.2623 86.9135 27.0953C87.0658 26.9272 87.2684 26.8431 87.5211 26.8431C87.7321 26.8431 87.9053 26.9007 88.0407 27.0157C88.1772 27.1297 88.259 27.273 88.2861 27.4456ZM89.9007 26.8753V27.1647H89.3422V28.6558H88.9783V27.1647H88.4198V26.8753H89.9007ZM90.5286 28.6558H90.1681V26.8753H90.5286V28.1226H90.5422L91.3647 26.8753H91.7252V28.6558H91.3647V27.405H91.3512L90.5286 28.6558Z" fill="#1A1A1A"/>
</svg>
