<svg width="92" height="27" viewBox="0 0 92 27" fill="none" xmlns="http://www.w3.org/2000/svg">
<path d="M33.1946 10.233V7.22131C33.1946 3.21755 30.8915 0.843642 26.994 0.843642C23.132 0.843642 20.8998 3.14669 20.8998 7.22131V7.75278C20.8998 11.3314 21.9982 13.1738 24.7619 14.2722L26.3208 14.8391C29.0136 15.9375 29.7223 16.8232 29.7223 18.7365V20.2247C29.7223 22.138 28.7302 23.2718 27.0295 23.2718C25.3642 23.2718 24.3721 22.138 24.3721 20.2247V16.965H20.829V19.9766C20.829 24.0158 23.0611 26.3543 26.994 26.3543C30.9269 26.3543 33.2654 23.9804 33.2654 19.9766V19.3034C33.2654 15.654 32.2025 13.9179 29.3325 12.8195L27.9153 12.288C25.1162 11.1542 24.443 10.2684 24.443 8.35512V6.97329C24.443 5.05999 25.3996 3.92618 27.0295 3.92618C28.6593 3.92618 29.6514 5.05999 29.6514 6.97329V10.233H33.1946ZM45.93 1.19796H34.2376V4.2805H38.3122V26H41.8553V4.2805H45.93V1.19796ZM47.3696 1.19796V26H53.2867C56.9007 26 59.5935 24.2284 59.5935 19.8704V7.32761C59.5935 3.00496 56.9007 1.19796 53.2867 1.19796H47.3696ZM50.9128 4.2805H53.2513C54.7394 4.2805 56.0149 4.98913 56.0149 7.29217V19.9058C56.0149 22.2088 54.7394 22.9175 53.2513 22.9175H50.9128V4.2805ZM64.9946 1.16253H61.4514V26H64.9946V15.158H65.5615L70.0613 26H73.8525L68.4669 13.599L73.2856 1.16253H69.4944L65.5615 12.04H64.9946V1.16253ZM75.0843 1.19796V26H78.6274V1.19796H75.0843ZM91.5688 1.19796H79.8764V4.2805H83.951V26H87.4941V4.2805H91.5688V1.19796Z" fill="#1A1A1A"/>
<path d="M7.61234 24.208L7.41039 24.7444H7.98352H9.99895H10.2734L10.3701 24.4875L19.151 1.16539L19.3529 0.629014H18.7798H16.7643H16.4899L16.3932 0.885883L7.61234 24.208Z" fill="#1A1A1A" stroke="#1A1A1A" stroke-width="0.793242"/>
<path d="M1.62882 24.208L1.42687 24.7444H2H4.01543H4.2899L4.38662 24.4875L13.1674 1.16539L13.3694 0.629014H12.7962H10.7808H10.5063L10.4096 0.885883L1.62882 24.208Z" fill="#1A1A1A" stroke="#1A1A1A" stroke-width="0.793242"/>
</svg>
