<svg width="1920" height="60" viewBox="0 0 1920 60" fill="none" xmlns="http://www.w3.org/2000/svg">
    <path d="M60.8009 19.3783C57.8013 18.8645 54.8772 21.1291 54.2642 24.4553C53.6503 27.7914 55.6594 30.9421 58.7536 31.4723C60.2979 31.7273 61.8084 31.2826 62.9926 30.3521C64.1785 29.4145 65.0373 27.9975 65.3007 26.3241C65.5637 24.6512 65.1852 23.0399 64.3703 21.7891C63.5558 20.5307 62.3058 19.6271 60.8009 19.3783Z" color="#FCF378" class="lamp" />

    <path d="M84.3122 22.7783C81.2842 22.4119 78.4698 24.7992 78.0184 28.1584C77.5674 31.513 79.716 34.5774 82.8211 34.9531C85.9253 35.3358 88.7472 32.8823 89.1207 29.521C89.4951 26.1497 87.3394 23.1518 84.3122 22.7783Z" color="#56C2EF" class="lamp" />

    <path d="M37.5374 14.8549C34.5843 14.1711 31.5346 16.2439 30.7109 19.5265C29.8864 22.8145 31.7092 26.0954 34.787 26.8082C36.3222 27.1557 37.864 26.796 39.1014 25.9359C40.3417 25.0657 41.2781 23.6981 41.6323 22.042C41.987 20.3858 41.6968 18.7564 40.9544 17.4629C40.2132 16.1594 39.0202 15.1904 37.5374 14.8549Z" color="#EE6159" class="lamp" />

    <path d="M14.7509 8.58888C13.3184 8.11736 11.8037 8.35228 10.5044 9.07463C9.20582 9.7999 8.10869 11.0432 7.54883 12.6411C6.98854 14.2395 7.0815 15.894 7.70711 17.2846C8.33063 18.6766 9.49141 19.7712 11.0077 20.2695C14.0566 21.2406 17.3032 19.3269 18.2491 16.077C19.1959 12.8229 17.6164 9.50175 14.7509 8.58888Z" color="#A0D468" class="lamp" />

    <path d="M203.238 26.8378C200.185 26.9794 197.817 29.8269 197.949 33.212C198.081 36.596 200.713 39.2337 203.828 39.0892C206.942 38.9347 209.309 36.0579 209.115 32.6714C208.921 29.2946 206.29 26.6862 203.238 26.8378Z" color="#FCF378" class="lamp" />

    <path d="M226.996 25.2137C223.952 25.4587 221.684 28.3916 221.931 31.7655C222.178 35.1477 224.9 37.6878 228.012 37.4374C231.123 37.174 233.388 34.2139 233.073 30.8367C232.759 27.4691 230.038 24.9562 226.996 25.2137Z" color="#56C2EF" class="lamp" />

    <path d="M179.427 27.4864C176.37 27.54 173.911 30.2941 173.935 33.686C173.959 37.0682 176.504 39.8048 179.619 39.7503C182.735 39.7047 185.193 36.8965 185.111 33.5097C185.028 30.1245 182.483 27.4416 179.427 27.4864Z" color="#EE6159" class="lamp" />

    <path d="M155.591 27.4864C152.534 27.4416 149.99 30.1245 149.907 33.5097C149.824 36.8965 152.283 39.7047 155.398 39.7503C158.514 39.8048 161.059 37.0682 161.083 33.686C161.107 30.2941 158.647 27.54 155.591 27.4864Z" color="#A0D468" class="lamp" />

    

    <path d="M131.763 26.8378C128.711 26.6862 126.08 29.2946 125.886 32.6714C125.692 36.0579 128.059 38.9347 131.173 39.0892C134.288 39.2337 136.92 36.596 137.052 33.212C137.184 29.8269 134.816 26.9794 131.763 26.8378Z" color="#FFCB29" class="lamp" />

    <path d="M320.25 8.58888C317.385 9.50175 315.805 12.8229 316.752 16.077C317.698 19.3269 320.944 21.2406 323.993 20.2695C325.51 19.7712 326.67 18.6766 327.293 17.2846C327.919 15.894 328.012 14.2395 327.452 12.6411C326.892 11.0432 325.795 9.7999 324.497 9.07463C323.197 8.35228 321.683 8.11736 320.25 8.58888Z" color="#EE6159" class="lamp" />

    <path d="M297.47 14.8549C295.987 15.1904 294.794 16.1594 294.053 17.4629C293.31 18.7564 293.02 20.3858 293.375 22.042C293.729 23.6981 294.666 25.0657 295.906 25.9359C297.143 26.796 298.685 27.1557 300.22 26.8082C303.298 26.0954 305.121 22.8145 304.296 19.5265C303.473 16.2439 300.423 14.1711 297.47 14.8549Z" color="#A0D468" class="lamp" />

    

    <path d="M274.207 19.3783C272.702 19.6271 271.452 20.5307 270.637 21.7891C269.822 23.0399 269.444 24.6512 269.707 26.3241C269.97 27.997 270.829 29.4145 272.015 30.3521C273.199 31.2826 274.71 31.7273 276.254 31.4723C279.348 30.9421 281.357 27.7914 280.743 24.4553C280.13 21.1291 277.206 18.8645 274.207 19.3783Z" color="#FFCB29" class="lamp" />


    <path d="M730.801 19.3783C727.801 18.8645 724.877 21.1291 724.264 24.4553C723.65 27.7914 725.659 30.9421 728.754 31.4723C730.298 31.7273 731.808 31.2826 732.993 30.3521C734.179 29.4145 735.037 27.9975 735.301 26.3241C735.564 24.6512 735.185 23.0399 734.37 21.7891C733.556 20.5307 732.306 19.6271 730.801 19.3783Z" color="#FCF378" class="lamp" />

    <path d="M754.312 22.7783C751.284 22.4119 748.47 24.7992 748.018 28.1584C747.567 31.513 749.716 34.5774 752.821 34.9531C755.925 35.3358 758.747 32.8823 759.121 29.521C759.495 26.1497 757.339 23.1518 754.312 22.7783Z" color="#56C2EF" class="lamp" />

    <path d="M707.537 14.8549C704.584 14.1711 701.535 16.2439 700.711 19.5265C699.886 22.8145 701.709 26.0954 704.787 26.8082C706.322 27.1557 707.864 26.796 709.101 25.9359C710.342 25.0657 711.278 23.6981 711.632 22.042C711.987 20.3858 711.697 18.7564 710.954 17.4629C710.213 16.1594 709.02 15.1904 707.537 14.8549Z" color="#EE6159" class="lamp" />

    <path d="M684.751 8.58888C683.318 8.11736 681.804 8.35228 680.504 9.07463C679.206 9.7999 678.109 11.0432 677.549 12.6411C676.989 14.2395 677.081 15.894 677.707 17.2846C678.331 18.6766 679.491 19.7712 681.008 20.2695C684.057 21.2406 687.303 19.3269 688.249 16.077C689.196 12.8229 687.616 9.50175 684.751 8.58888Z" color="#A0D468" class="lamp" />

    <path d="M873.238 26.8378C870.185 26.9794 867.817 29.8269 867.949 33.212C868.081 36.596 870.713 39.2337 873.828 39.0892C876.942 38.9347 879.309 36.0579 879.115 32.6714C878.921 29.2946 876.29 26.6862 873.238 26.8378Z" color="#FCF378" class="lamp" />

    <path d="M896.996 25.2137C893.952 25.4587 891.684 28.3916 891.931 31.7655C892.178 35.1477 894.9 37.6878 898.012 37.4374C901.123 37.174 903.388 34.2139 903.073 30.8367C902.759 27.4691 900.038 24.9562 896.996 25.2137Z" color="#56C2EF" class="lamp" />

    <path d="M849.427 27.4864C846.37 27.54 843.911 30.2941 843.935 33.686C843.959 37.0682 846.504 39.8048 849.619 39.7503C852.735 39.7047 855.193 36.8965 855.111 33.5097C855.028 30.1245 852.483 27.4416 849.427 27.4864Z" color="#EE6159" class="lamp" />

    <path d="M825.591 27.4864C822.534 27.4416 819.99 30.1245 819.907 33.5097C819.824 36.8965 822.283 39.7047 825.398 39.7503C828.514 39.8048 831.059 37.0682 831.083 33.686C831.107 30.2941 828.647 27.54 825.591 27.4864Z" color="#A0D468" class="lamp" />

    <path d="M107.993 25.2137C104.95 24.9562 102.23 27.4691 101.915 30.8367C101.6 34.2139 103.866 37.174 106.977 37.4374C110.088 37.6878 112.811 35.1477 113.058 31.7655C113.305 28.3916 111.037 25.4587 107.993 25.2137Z" color="#AC6CAD" class="lamp" />
<path d="M250.69 22.7783C247.663 23.1518 245.508 26.1497 245.882 29.521C246.255 32.8823 249.077 35.3358 252.182 34.9531C255.287 34.5774 257.435 31.513 256.984 28.1584C256.533 24.7992 253.718 22.4119 250.69 22.7783Z" color="#AC6CAD" class="lamp" />
<path d="M777.993 25.2137C774.95 24.9562 772.23 27.4691 771.915 30.8367C771.6 34.2139 773.866 37.174 776.977 37.4374C780.088 37.6878 782.81 35.1477 783.058 31.7655C783.305 28.3916 781.037 25.4587 777.993 25.2137Z" color="#AC6CAD" class="lamp" />
<path d="M920.69 22.7783C917.663 23.1518 915.508 26.1497 915.882 29.521C916.255 32.8823 919.077 35.3358 922.182 34.9531C925.287 34.5774 927.435 31.513 926.984 28.1584C926.533 24.7992 923.718 22.4119 920.69 22.7783Z" color="#AC6CAD" class="lamp" />
<path d="M1447.99 25.2137C1444.95 24.9562 1442.23 27.4691 1441.92 30.8367C1441.6 34.2139 1443.87 37.174 1446.98 37.4374C1450.09 37.6878 1452.81 35.1477 1453.06 31.7655C1453.31 28.3916 1451.04 25.4587 1447.99 25.2137Z" color="#AC6CAD" class="lamp" />
<path d="M1590.69 22.7783C1587.66 23.1518 1585.51 26.1497 1585.88 29.521C1586.26 32.8823 1589.08 35.3358 1592.18 34.9531C1595.29 34.5774 1597.44 31.513 1596.98 28.1584C1596.53 24.7992 1593.72 22.4119 1590.69 22.7783Z" color="#AC6CAD" class="lamp" />
<path d="M442.993 25.2137C439.95 24.9562 437.23 27.4691 436.915 30.8367C436.6 34.2139 438.866 37.174 441.977 37.4374C445.088 37.6878 447.811 35.1477 448.058 31.7655C448.305 28.3916 446.037 25.4587 442.993 25.2137Z" color="#AC6CAD" class="lamp" />
<path d="M585.69 22.7783C582.663 23.1518 580.508 26.1497 580.882 29.521C581.255 32.8823 584.077 35.3358 587.182 34.9531C590.287 34.5774 592.435 31.513 591.984 28.1584C591.533 24.7992 588.718 22.4119 585.69 22.7783Z" color="#AC6CAD" class="lamp" />
<path d="M1112.99 25.2137C1109.95 24.9562 1107.23 27.4691 1106.92 30.8367C1106.6 34.2139 1108.87 37.174 1111.98 37.4374C1115.09 37.6878 1117.81 35.1477 1118.06 31.7655C1118.31 28.3916 1116.04 25.4587 1112.99 25.2137Z" color="#AC6CAD" class="lamp" />
<path d="M1255.69 22.7783C1252.66 23.1518 1250.51 26.1497 1250.88 29.521C1251.26 32.8823 1254.08 35.3358 1257.18 34.9531C1260.29 34.5774 1262.44 31.513 1261.98 28.1584C1261.53 24.7992 1258.72 22.4119 1255.69 22.7783Z" color="#AC6CAD" class="lamp" />
<path d="M1782.99 25.2137C1779.95 24.9562 1777.23 27.4691 1776.92 30.8367C1776.6 34.2139 1778.87 37.174 1781.98 37.4374C1785.09 37.6878 1787.81 35.1477 1788.06 31.7655C1788.31 28.3916 1786.04 25.4587 1782.99 25.2137Z" color="#AC6CAD" class="lamp" />

    <path d="M801.763 26.8378C798.711 26.6862 796.08 29.2946 795.886 32.6714C795.692 36.0579 798.059 38.9347 801.173 39.0892C804.288 39.2337 806.92 36.596 807.052 33.212C807.184 29.8269 804.816 26.9794 801.763 26.8378Z" color="#FFCB29" class="lamp" />

    <path d="M990.25 8.58888C987.385 9.50175 985.805 12.8229 986.752 16.077C987.698 19.3269 990.944 21.2406 993.993 20.2695C995.51 19.7712 996.67 18.6766 997.293 17.2846C997.919 15.894 998.012 14.2395 997.452 12.6411C996.892 11.0432 995.795 9.7999 994.497 9.07463C993.197 8.35228 991.683 8.11736 990.25 8.58888Z" color="#EE6159" class="lamp" />

    <path d="M967.47 14.8549C965.987 15.1904 964.794 16.1594 964.053 17.4629C963.31 18.7564 963.02 20.3858 963.375 22.042C963.729 23.6981 964.666 25.0657 965.906 25.9359C967.143 26.796 968.685 27.1557 970.22 26.8082C973.298 26.0954 975.121 22.8145 974.296 19.5265C973.473 16.2439 970.423 14.1711 967.47 14.8549Z" color="#A0D468" class="lamp" />

    

    <path d="M944.207 19.3783C942.702 19.6271 941.452 20.5307 940.637 21.7891C939.822 23.0399 939.444 24.6512 939.707 26.3241C939.97 27.997 940.829 29.4145 942.015 30.3521C943.199 31.2826 944.71 31.7273 946.254 31.4723C949.348 30.9421 951.357 27.7914 950.743 24.4553C950.13 21.1291 947.206 18.8645 944.207 19.3783Z" color="#FFCB29" class="lamp" />


    <path d="M1400.8 19.3783C1397.8 18.8645 1394.88 21.1291 1394.26 24.4553C1393.65 27.7914 1395.66 30.9421 1398.75 31.4723C1400.3 31.7273 1401.81 31.2826 1402.99 30.3521C1404.18 29.4145 1405.04 27.9975 1405.3 26.3241C1405.56 24.6512 1405.19 23.0399 1404.37 21.7891C1403.56 20.5307 1402.31 19.6271 1400.8 19.3783Z" color="#FCF378" class="lamp" />

    <path d="M1424.31 22.7783C1421.28 22.4119 1418.47 24.7992 1418.02 28.1584C1417.57 31.513 1419.72 34.5774 1422.82 34.9531C1425.93 35.3358 1428.75 32.8823 1429.12 29.521C1429.5 26.1497 1427.34 23.1518 1424.31 22.7783Z" color="#56C2EF" class="lamp" />

    <path d="M1377.54 14.8549C1374.58 14.1711 1371.53 16.2439 1370.71 19.5265C1369.89 22.8145 1371.71 26.0954 1374.79 26.8082C1376.32 27.1557 1377.86 26.796 1379.1 25.9359C1380.34 25.0657 1381.28 23.6981 1381.63 22.042C1381.99 20.3858 1381.7 18.7564 1380.95 17.4629C1380.21 16.1594 1379.02 15.1904 1377.54 14.8549Z" color="#EE6159" class="lamp" />

    <path d="M1354.75 8.58888C1353.32 8.11736 1351.8 8.35228 1350.5 9.07463C1349.21 9.7999 1348.11 11.0432 1347.55 12.6411C1346.99 14.2395 1347.08 15.894 1347.71 17.2846C1348.33 18.6766 1349.49 19.7712 1351.01 20.2695C1354.06 21.2406 1357.3 19.3269 1358.25 16.077C1359.2 12.8229 1357.62 9.50175 1354.75 8.58888Z" color="#A0D468" class="lamp" />

    <path d="M1543.24 26.8378C1540.19 26.9794 1537.82 29.8269 1537.95 33.212C1538.08 36.596 1540.71 39.2337 1543.83 39.0892C1546.94 38.9347 1549.31 36.0579 1549.12 32.6714C1548.92 29.2946 1546.29 26.6862 1543.24 26.8378Z" color="#FCF378" class="lamp" />

    <path d="M1567 25.2137C1563.95 25.4587 1561.68 28.3916 1561.93 31.7655C1562.18 35.1477 1564.9 37.6878 1568.01 37.4374C1571.12 37.174 1573.39 34.2139 1573.07 30.8367C1572.76 27.4691 1570.04 24.9562 1567 25.2137Z" color="#56C2EF" class="lamp" />

    <path d="M1519.43 27.4864C1516.37 27.54 1513.91 30.2941 1513.93 33.686C1513.96 37.0682 1516.5 39.8048 1519.62 39.7503C1522.73 39.7047 1525.19 36.8965 1525.11 33.5097C1525.03 30.1245 1522.48 27.4416 1519.43 27.4864Z" color="#EE6159" class="lamp" />

    <path d="M1495.59 27.4864C1492.53 27.4416 1489.99 30.1245 1489.91 33.5097C1489.82 36.8965 1492.28 39.7047 1495.4 39.7503C1498.51 39.8048 1501.06 37.0682 1501.08 33.686C1501.11 30.2941 1498.65 27.54 1495.59 27.4864Z" color="#A0D468" class="lamp" />

    

    <path d="M1471.76 26.8378C1468.71 26.6862 1466.08 29.2946 1465.89 32.6714C1465.69 36.0579 1468.06 38.9347 1471.17 39.0892C1474.29 39.2337 1476.92 36.596 1477.05 33.212C1477.18 29.8269 1474.82 26.9794 1471.76 26.8378Z" color="#FFCB29" class="lamp" />

    <path d="M1660.25 8.58888C1657.38 9.50175 1655.81 12.8229 1656.75 16.077C1657.7 19.3269 1660.94 21.2406 1663.99 20.2695C1665.51 19.7712 1666.67 18.6766 1667.29 17.2846C1667.92 15.894 1668.01 14.2395 1667.45 12.6411C1666.89 11.0432 1665.8 9.7999 1664.5 9.07463C1663.2 8.35228 1661.68 8.11736 1660.25 8.58888Z" color="#EE6159" class="lamp" />

    <path d="M1637.47 14.8549C1635.99 15.1904 1634.79 16.1594 1634.05 17.4629C1633.31 18.7564 1633.02 20.3858 1633.37 22.042C1633.73 23.6981 1634.67 25.0657 1635.91 25.9359C1637.14 26.796 1638.68 27.1557 1640.22 26.8082C1643.3 26.0954 1645.12 22.8145 1644.3 19.5265C1643.47 16.2439 1640.42 14.1711 1637.47 14.8549Z" color="#A0D468" class="lamp" />

    

    <path d="M1614.21 19.3783C1612.7 19.6271 1611.45 20.5307 1610.64 21.7891C1609.82 23.0399 1609.44 24.6512 1609.71 26.3241C1609.97 27.997 1610.83 29.4145 1612.01 30.3521C1613.2 31.2826 1614.71 31.7273 1616.25 31.4723C1619.35 30.9421 1621.36 27.7914 1620.74 24.4553C1620.13 21.1291 1617.21 18.8645 1614.21 19.3783Z" color="#FFCB29" class="lamp" />


    <path d="M395.801 19.3783C392.801 18.8645 389.877 21.1291 389.264 24.4553C388.65 27.7914 390.659 30.9421 393.754 31.4723C395.298 31.7273 396.808 31.2826 397.993 30.3521C399.178 29.4145 400.037 27.9975 400.301 26.3241C400.564 24.6512 400.185 23.0399 399.37 21.7891C398.556 20.5307 397.306 19.6271 395.801 19.3783Z" color="#FCF378" class="lamp" />

    <path d="M419.312 22.7783C416.284 22.4119 413.47 24.7992 413.018 28.1584C412.567 31.513 414.716 34.5774 417.821 34.9531C420.925 35.3358 423.747 32.8823 424.121 29.521C424.495 26.1497 422.339 23.1518 419.312 22.7783Z" color="#56C2EF" class="lamp" />

    <path d="M372.537 14.8549C369.584 14.1711 366.535 16.2439 365.711 19.5265C364.886 22.8145 366.709 26.0954 369.787 26.8082C371.322 27.1557 372.864 26.796 374.101 25.9359C375.342 25.0657 376.278 23.6981 376.632 22.042C376.987 20.3858 376.697 18.7564 375.954 17.4629C375.213 16.1594 374.02 15.1904 372.537 14.8549Z" color="#EE6159" class="lamp" />

    <path d="M349.751 8.58888C348.318 8.11736 346.804 8.35228 345.504 9.07463C344.206 9.7999 343.109 11.0432 342.549 12.6411C341.989 14.2395 342.082 15.894 342.707 17.2846C343.331 18.6766 344.491 19.7712 346.008 20.2695C349.057 21.2406 352.303 19.3269 353.249 16.077C354.196 12.8229 352.616 9.50175 349.751 8.58888Z" color="#A0D468" class="lamp" />

    <path d="M538.238 26.8378C535.185 26.9794 532.817 29.8269 532.949 33.212C533.081 36.596 535.713 39.2337 538.828 39.0892C541.942 38.9347 544.309 36.0579 544.115 32.6714C543.921 29.2946 541.29 26.6862 538.238 26.8378Z" color="#FCF378" class="lamp" />

    <path d="M561.996 25.2137C558.952 25.4587 556.684 28.3916 556.931 31.7655C557.178 35.1477 559.9 37.6878 563.012 37.4374C566.123 37.174 568.388 34.2139 568.073 30.8367C567.759 27.4691 565.038 24.9562 561.996 25.2137Z" color="#56C2EF" class="lamp" />

    <path d="M514.427 27.4864C511.37 27.54 508.911 30.2941 508.935 33.686C508.959 37.0682 511.504 39.8048 514.619 39.7503C517.735 39.7047 520.193 36.8965 520.111 33.5097C520.028 30.1245 517.483 27.4416 514.427 27.4864Z" color="#EE6159" class="lamp" />

    <path d="M490.591 27.4864C487.534 27.4416 484.99 30.1245 484.907 33.5097C484.824 36.8965 487.283 39.7047 490.398 39.7503C493.514 39.8048 496.059 37.0682 496.083 33.686C496.107 30.2941 493.647 27.54 490.591 27.4864Z" color="#A0D468" class="lamp" />

    

    <path d="M466.763 26.8378C463.711 26.6862 461.08 29.2946 460.886 32.6714C460.692 36.0579 463.059 38.9347 466.173 39.0892C469.288 39.2337 471.92 36.596 472.052 33.212C472.184 29.8269 469.816 26.9794 466.763 26.8378Z" color="#FFCB29" class="lamp" />

    <path d="M655.25 8.58888C652.385 9.50175 650.805 12.8229 651.752 16.077C652.698 19.3269 655.944 21.2406 658.993 20.2695C660.51 19.7712 661.67 18.6766 662.293 17.2846C662.919 15.894 663.012 14.2395 662.452 12.6411C661.892 11.0432 660.795 9.7999 659.497 9.07463C658.197 8.35228 656.683 8.11736 655.25 8.58888Z" color="#EE6159" class="lamp" />

    <path d="M632.47 14.8549C630.987 15.1904 629.794 16.1594 629.053 17.4629C628.31 18.7564 628.02 20.3858 628.375 22.042C628.729 23.6981 629.666 25.0657 630.906 25.9359C632.143 26.796 633.685 27.1557 635.22 26.8082C638.298 26.0954 640.121 22.8145 639.296 19.5265C638.473 16.2439 635.423 14.1711 632.47 14.8549Z" color="#A0D468" class="lamp" />

    

    <path d="M609.207 19.3783C607.702 19.6271 606.452 20.5307 605.637 21.7891C604.822 23.0399 604.444 24.6512 604.707 26.3241C604.97 27.997 605.829 29.4145 607.015 30.3521C608.199 31.2826 609.71 31.7273 611.254 31.4723C614.348 30.9421 616.357 27.7914 615.743 24.4553C615.13 21.1291 612.206 18.8645 609.207 19.3783Z" color="#FFCB29" class="lamp" />


    <path d="M1065.8 19.3783C1062.8 18.8645 1059.88 21.1291 1059.26 24.4553C1058.65 27.7914 1060.66 30.9421 1063.75 31.4723C1065.3 31.7273 1066.81 31.2826 1067.99 30.3521C1069.18 29.4145 1070.04 27.9975 1070.3 26.3241C1070.56 24.6512 1070.19 23.0399 1069.37 21.7891C1068.56 20.5307 1067.31 19.6271 1065.8 19.3783Z" color="#FCF378" class="lamp" />

    <path d="M1089.31 22.7783C1086.28 22.4119 1083.47 24.7992 1083.02 28.1584C1082.57 31.513 1084.72 34.5774 1087.82 34.9531C1090.93 35.3358 1093.75 32.8823 1094.12 29.521C1094.5 26.1497 1092.34 23.1518 1089.31 22.7783Z" color="#56C2EF" class="lamp" />

    <path d="M1042.54 14.8549C1039.58 14.1711 1036.53 16.2439 1035.71 19.5265C1034.89 22.8145 1036.71 26.0954 1039.79 26.8082C1041.32 27.1557 1042.86 26.796 1044.1 25.9359C1045.34 25.0657 1046.28 23.6981 1046.63 22.042C1046.99 20.3858 1046.7 18.7564 1045.95 17.4629C1045.21 16.1594 1044.02 15.1904 1042.54 14.8549Z" color="#EE6159" class="lamp" />

    <path d="M1019.75 8.58888C1018.32 8.11736 1016.8 8.35228 1015.5 9.07463C1014.21 9.7999 1013.11 11.0432 1012.55 12.6411C1011.99 14.2395 1012.08 15.894 1012.71 17.2846C1013.33 18.6766 1014.49 19.7712 1016.01 20.2695C1019.06 21.2406 1022.3 19.3269 1023.25 16.077C1024.2 12.8229 1022.62 9.50175 1019.75 8.58888Z" color="#A0D468" class="lamp" />

    <path d="M1208.24 26.8378C1205.19 26.9794 1202.82 29.8269 1202.95 33.212C1203.08 36.596 1205.71 39.2337 1208.83 39.0892C1211.94 38.9347 1214.31 36.0579 1214.12 32.6714C1213.92 29.2946 1211.29 26.6862 1208.24 26.8378Z" color="#FCF378" class="lamp" />

    <path d="M1232 25.2137C1228.95 25.4587 1226.68 28.3916 1226.93 31.7655C1227.18 35.1477 1229.9 37.6878 1233.01 37.4374C1236.12 37.174 1238.39 34.2139 1238.07 30.8367C1237.76 27.4691 1235.04 24.9562 1232 25.2137Z" color="#56C2EF" class="lamp" />

    <path d="M1184.43 27.4864C1181.37 27.54 1178.91 30.2941 1178.93 33.686C1178.96 37.0682 1181.5 39.8048 1184.62 39.7503C1187.73 39.7047 1190.19 36.8965 1190.11 33.5097C1190.03 30.1245 1187.48 27.4416 1184.43 27.4864Z" color="#EE6159" class="lamp" />

    <path d="M1160.59 27.4864C1157.53 27.4416 1154.99 30.1245 1154.91 33.5097C1154.82 36.8965 1157.28 39.7047 1160.4 39.7503C1163.51 39.8048 1166.06 37.0682 1166.08 33.686C1166.11 30.2941 1163.65 27.54 1160.59 27.4864Z" color="#A0D468" class="lamp" />

    

    <path d="M1136.76 26.8378C1133.71 26.6862 1131.08 29.2946 1130.89 32.6714C1130.69 36.0579 1133.06 38.9347 1136.17 39.0892C1139.29 39.2337 1141.92 36.596 1142.05 33.212C1142.18 29.8269 1139.82 26.9794 1136.76 26.8378Z" color="#FFCB29" class="lamp" />

    <path d="M1325.25 8.58888C1322.38 9.50175 1320.81 12.8229 1321.75 16.077C1322.7 19.3269 1325.94 21.2406 1328.99 20.2695C1330.51 19.7712 1331.67 18.6766 1332.29 17.2846C1332.92 15.894 1333.01 14.2395 1332.45 12.6411C1331.89 11.0432 1330.8 9.7999 1329.5 9.07463C1328.2 8.35228 1326.68 8.11736 1325.25 8.58888Z" color="#EE6159" class="lamp" />

    <path d="M1302.47 14.8549C1300.99 15.1904 1299.79 16.1594 1299.05 17.4629C1298.31 18.7564 1298.02 20.3858 1298.37 22.042C1298.73 23.6981 1299.67 25.0657 1300.91 25.9359C1302.14 26.796 1303.68 27.1557 1305.22 26.8082C1308.3 26.0954 1310.12 22.8145 1309.3 19.5265C1308.47 16.2439 1305.42 14.1711 1302.47 14.8549Z" color="#A0D468" class="lamp" />

    

    <path d="M1279.21 19.3783C1277.7 19.6271 1276.45 20.5307 1275.64 21.7891C1274.82 23.0399 1274.44 24.6512 1274.71 26.3241C1274.97 27.997 1275.83 29.4145 1277.01 30.3521C1278.2 31.2826 1279.71 31.7273 1281.25 31.4723C1284.35 30.9421 1286.36 27.7914 1285.74 24.4553C1285.13 21.1291 1282.21 18.8645 1279.21 19.3783Z" color="#FFCB29" class="lamp" />


    <path d="M1735.8 19.3783C1732.8 18.8645 1729.88 21.1291 1729.26 24.4553C1728.65 27.7914 1730.66 30.9421 1733.75 31.4723C1735.3 31.7273 1736.81 31.2826 1737.99 30.3521C1739.18 29.4145 1740.04 27.9975 1740.3 26.3241C1740.56 24.6512 1740.19 23.0399 1739.37 21.7891C1738.56 20.5307 1737.31 19.6271 1735.8 19.3783Z" color="#FCF378" class="lamp" />

    <path d="M1759.31 22.7783C1756.28 22.4119 1753.47 24.7992 1753.02 28.1584C1752.57 31.513 1754.72 34.5774 1757.82 34.9531C1760.93 35.3358 1763.75 32.8823 1764.12 29.521C1764.5 26.1497 1762.34 23.1518 1759.31 22.7783Z" color="#56C2EF" class="lamp" />

    <path d="M1712.54 14.8549C1709.58 14.1711 1706.53 16.2439 1705.71 19.5265C1704.89 22.8145 1706.71 26.0954 1709.79 26.8082C1711.32 27.1557 1712.86 26.796 1714.1 25.9359C1715.34 25.0657 1716.28 23.6981 1716.63 22.042C1716.99 20.3858 1716.7 18.7564 1715.95 17.4629C1715.21 16.1594 1714.02 15.1904 1712.54 14.8549Z" color="#EE6159" class="lamp" />

    <path d="M1689.75 8.58888C1688.32 8.11736 1686.8 8.35228 1685.5 9.07463C1684.21 9.7999 1683.11 11.0432 1682.55 12.6411C1681.99 14.2395 1682.08 15.894 1682.71 17.2846C1683.33 18.6766 1684.49 19.7712 1686.01 20.2695C1689.06 21.2406 1692.3 19.3269 1693.25 16.077C1694.2 12.8229 1692.62 9.50175 1689.75 8.58888Z" color="#A0D468" class="lamp" />

    <path d="M1878.24 26.8378C1875.19 26.9794 1872.82 29.8269 1872.95 33.212C1873.08 36.596 1875.71 39.2337 1878.83 39.0892C1881.94 38.9347 1884.31 36.0579 1884.12 32.6714C1883.92 29.2946 1881.29 26.6862 1878.24 26.8378Z" color="#FCF378" class="lamp" />

    <path d="M1902 25.2137C1898.95 25.4587 1896.68 28.3916 1896.93 31.7655C1897.18 35.1477 1899.9 37.6878 1903.01 37.4374C1906.12 37.174 1908.39 34.2139 1908.07 30.8367C1907.76 27.4691 1905.04 24.9562 1902 25.2137Z" color="#56C2EF" class="lamp" />

    <path d="M1854.43 27.4864C1851.37 27.54 1848.91 30.2941 1848.93 33.686C1848.96 37.0682 1851.5 39.8048 1854.62 39.7503C1857.73 39.7047 1860.19 36.8965 1860.11 33.5097C1860.03 30.1245 1857.48 27.4416 1854.43 27.4864Z" color="#EE6159" class="lamp" />

    <path d="M1830.59 27.4864C1827.53 27.4416 1824.99 30.1245 1824.91 33.5097C1824.82 36.8965 1827.28 39.7047 1830.4 39.7503C1833.51 39.8048 1836.06 37.0682 1836.08 33.686C1836.11 30.2941 1833.65 27.54 1830.59 27.4864Z" color="#A0D468" class="lamp" />

    

    <path d="M1806.76 26.8378C1803.71 26.6862 1801.08 29.2946 1800.89 32.6714C1800.69 36.0579 1803.06 38.9347 1806.17 39.0892C1809.29 39.2337 1811.92 36.596 1812.05 33.212C1812.18 29.8269 1809.82 26.9794 1806.76 26.8378Z" color="#FFCB29" class="lamp" />

    <path d="M62.5549 17.6097C62.6897 16.7961 62.2094 16.0386 61.482 15.9184L61.294 15.887C60.5671 15.7639 59.8656 16.3179 59.7245 17.1315C59.2015 17.0402 58.6948 17.4393 58.5926 18.0226L58.3083 19.6503C58.2434 20.0196 59.2551 20.5096 60.57 20.734C61.8861 20.9518 63.0025 20.8274 63.0628 20.456L63.3304 18.8254C63.4263 18.2408 63.0791 17.6968 62.5549 17.6097Z" fill="#616262" class="cap" />
    <path d="M86.0011 20.8223C86.0987 20.0032 85.5836 19.2654 84.8496 19.1745L84.6599 19.1511C83.9262 19.0602 83.2479 19.6502 83.1453 20.4689C82.6172 20.4036 82.1281 20.8269 82.0536 21.4148L81.8459 23.0538C81.7981 23.4269 82.8337 23.8624 84.1591 24.0266C85.484 24.1941 86.5954 24.0136 86.6393 23.6397L86.8332 21.999C86.9027 21.4107 86.53 20.8839 86.0011 20.8223Z" fill="#616262" class="cap" />
    <path d="M39.404 13.1122C39.5853 12.307 39.1519 11.5252 38.4367 11.364L38.2525 11.3204C37.5397 11.1529 36.8086 11.668 36.6198 12.4711C36.1055 12.3501 35.5775 12.7195 35.4401 13.2957L35.0582 14.9028C34.9707 15.2688 35.9502 15.8128 37.2458 16.1176C38.5443 16.4116 39.6641 16.3479 39.7453 15.9811L40.105 14.3685C40.234 13.7902 39.9199 13.2278 39.404 13.1122Z" fill="#616262" class="cap" />
    <path d="M16.7331 7.00311C16.9789 6.21586 16.6183 5.40182 15.9278 5.18533L15.7486 5.12921C15.0622 4.90518 14.298 5.35616 14.0401 6.14048C13.5439 5.97717 12.9898 6.30045 12.8022 6.86241L12.2809 8.42979C12.1616 8.78573 13.0832 9.41386 14.3428 9.82382C15.6079 10.22 16.723 10.2501 16.8331 9.8904L17.321 8.3117C17.4956 7.74555 17.2322 7.15972 16.7331 7.00311Z" fill="#616262" class="cap" />
    <path d="M204.566 24.6575C204.524 23.8334 203.89 23.1961 203.149 23.2338L202.958 23.2434C202.217 23.2823 201.647 23.972 201.685 24.7978C201.152 24.8213 200.741 25.32 200.767 25.9117L200.841 27.5624C200.858 27.9363 201.954 28.1993 203.289 28.1331C204.624 28.0653 205.691 27.7056 205.671 27.3296L205.586 25.6797C205.556 25.088 205.099 24.6303 204.566 24.6575Z" fill="#616262" class="cap" />
    <path d="M228.263 22.9742C228.192 22.1522 227.537 21.5371 226.799 21.6007L226.608 21.617C225.87 21.6803 225.325 22.3905 225.391 23.2142C224.86 23.256 224.466 23.7686 224.513 24.359L224.644 26.006C224.674 26.3799 225.778 26.6035 227.11 26.4921C228.441 26.3774 229.493 25.9808 229.461 25.6061L229.318 23.96C229.266 23.3699 228.794 22.9286 228.263 22.9742Z" fill="#616262" class="cap" />
    <path d="M180.82 25.3577C180.805 24.5328 180.192 23.8741 179.45 23.8867L179.259 23.8896C178.517 23.9021 177.924 24.5809 177.935 25.4063C177.401 25.4147 176.975 25.8971 176.982 26.49L177.002 28.142C177.007 28.5201 178.094 28.8128 179.431 28.7877C180.768 28.7651 181.846 28.4418 181.838 28.0658L181.807 26.4138C181.796 25.8217 181.354 25.3485 180.82 25.3577Z" fill="#616262" class="cap" />
    <path d="M157.06 25.4063C157.071 24.5809 156.478 23.9021 155.736 23.8896L155.545 23.8867C154.803 23.8741 154.189 24.5328 154.174 25.3577C153.64 25.3485 153.199 25.8217 153.187 26.4138L153.156 28.0658C153.149 28.4418 154.227 28.7651 155.564 28.7877C156.9 28.8128 157.988 28.5201 157.993 28.142L158.013 26.49C158.021 25.8971 157.593 25.4147 157.06 25.4063Z" fill="#616262" class="cap" />
    <path d="M109.597 23.2142C109.663 22.3905 109.118 21.6803 108.38 21.617L108.188 21.6007C107.451 21.5371 106.795 22.1522 106.725 22.9742C106.194 22.9286 105.722 23.3699 105.67 23.96L105.527 25.6061C105.494 25.9808 106.547 26.3774 107.878 26.4921C109.21 26.6035 110.314 26.3799 110.344 26.006L110.475 24.359C110.522 23.7686 110.128 23.256 109.597 23.2142Z" fill="#616262" class="cap" />
    <path d="M133.297 24.7978C133.335 23.972 132.765 23.2823 132.025 23.2434L131.833 23.2338C131.092 23.1961 130.458 23.8334 130.417 24.6575C129.883 24.6303 129.427 25.088 129.396 25.6797L129.311 27.3296C129.291 27.7056 130.358 28.0653 131.693 28.1331C133.028 28.1993 134.125 27.9363 134.141 27.5624L134.215 25.9117C134.241 25.32 133.831 24.8213 133.297 24.7978Z" fill="#616262" class="cap" />
    <path d="M320.957 6.14048C320.699 5.35616 319.935 4.90518 319.249 5.12921L319.07 5.18533C318.379 5.40182 318.018 6.21586 318.264 7.00311C317.765 7.15972 317.502 7.74555 317.676 8.3117L318.164 9.8904C318.275 10.2501 319.39 10.22 320.654 9.82382C321.914 9.41386 322.836 8.78573 322.717 8.42979L322.195 6.86241C322.008 6.30045 321.453 5.97717 320.957 6.14048Z" fill="#616262" class="cap" />
    <path d="M298.395 12.4711C298.206 11.668 297.475 11.1529 296.763 11.3204L296.578 11.364C295.863 11.5252 295.43 12.307 295.611 13.1122C295.095 13.2278 294.781 13.7902 294.91 14.3685L295.269 15.9811C295.351 16.3479 296.471 16.4116 297.769 16.1176C299.064 15.8128 300.044 15.2688 299.956 14.9028L299.575 13.2957C299.438 12.7195 298.91 12.3501 298.395 12.4711Z" fill="#616262" class="cap" />
    <path d="M251.847 20.4689C251.744 19.6502 251.066 19.0602 250.332 19.1511L250.143 19.1745C249.409 19.2654 248.893 20.0032 248.991 20.8223C248.462 20.8839 248.089 21.4107 248.159 21.999L248.353 23.6397C248.397 24.0136 249.508 24.1941 250.833 24.0266C252.158 23.8624 253.194 23.4269 253.146 23.0538L252.939 21.4148C252.864 20.8269 252.375 20.4036 251.847 20.4689Z" fill="#616262" class="cap" />
    <path d="M275.27 17.1315C275.129 16.3179 274.428 15.7639 273.701 15.887L273.513 15.9184C272.786 16.0386 272.305 16.7961 272.44 17.6097C271.916 17.6968 271.569 18.2408 271.665 18.8254L271.932 20.456C271.993 20.8274 273.109 20.9518 274.425 20.734C275.74 20.5096 276.752 20.0196 276.687 19.6503L276.402 18.0226C276.3 17.4393 275.793 17.0402 275.27 17.1315Z" fill="#616262" class="cap" />
    <path d="M732.555 17.6097C732.69 16.7961 732.209 16.0386 731.482 15.9184L731.294 15.887C730.567 15.7639 729.866 16.3179 729.725 17.1315C729.202 17.0402 728.695 17.4393 728.593 18.0226L728.308 19.6503C728.243 20.0196 729.255 20.5096 730.57 20.734C731.886 20.9518 733.003 20.8274 733.063 20.456L733.33 18.8254C733.426 18.2408 733.079 17.6968 732.555 17.6097Z" fill="#616262" class="cap" />
    <path d="M756.001 20.8223C756.099 20.0032 755.584 19.2654 754.85 19.1745L754.66 19.1511C753.926 19.0602 753.248 19.6502 753.145 20.4689C752.617 20.4036 752.128 20.8269 752.054 21.4148L751.846 23.0538C751.798 23.4269 752.834 23.8624 754.159 24.0266C755.484 24.1941 756.595 24.0136 756.639 23.6397L756.833 21.999C756.903 21.4107 756.53 20.8839 756.001 20.8223Z" fill="#616262" class="cap" />
    <path d="M709.404 13.1122C709.585 12.307 709.152 11.5252 708.437 11.364L708.252 11.3204C707.54 11.1529 706.809 11.668 706.62 12.4711C706.105 12.3501 705.577 12.7195 705.44 13.2957L705.058 14.9028C704.971 15.2688 705.95 15.8128 707.246 16.1176C708.544 16.4116 709.664 16.3479 709.745 15.9811L710.105 14.3685C710.234 13.7902 709.92 13.2278 709.404 13.1122Z" fill="#616262" class="cap" />
    <path d="M686.733 7.00311C686.979 6.21586 686.618 5.40182 685.928 5.18533L685.749 5.12921C685.062 4.90518 684.298 5.35616 684.04 6.14048C683.544 5.97717 682.99 6.30045 682.802 6.86241L682.281 8.42979C682.162 8.78573 683.083 9.41386 684.343 9.82382C685.608 10.22 686.723 10.2501 686.833 9.8904L687.321 8.3117C687.496 7.74555 687.232 7.15972 686.733 7.00311Z" fill="#616262" class="cap" />
    <path d="M874.566 24.6575C874.524 23.8334 873.89 23.1961 873.149 23.2338L872.958 23.2434C872.217 23.2823 871.647 23.972 871.685 24.7978C871.152 24.8213 870.741 25.32 870.767 25.9117L870.841 27.5624C870.858 27.9363 871.954 28.1993 873.289 28.1331C874.624 28.0653 875.691 27.7056 875.671 27.3296L875.586 25.6797C875.556 25.088 875.099 24.6303 874.566 24.6575Z" fill="#616262" class="cap" />
    <path d="M898.263 22.9742C898.192 22.1522 897.537 21.5371 896.799 21.6007L896.608 21.617C895.87 21.6803 895.325 22.3905 895.391 23.2142C894.86 23.256 894.466 23.7686 894.513 24.359L894.644 26.006C894.674 26.3799 895.778 26.6035 897.11 26.4921C898.441 26.3774 899.493 25.9808 899.461 25.6061L899.318 23.96C899.266 23.3699 898.794 22.9286 898.263 22.9742Z" fill="#616262" class="cap" />
    <path d="M850.82 25.3577C850.805 24.5328 850.192 23.8741 849.45 23.8867L849.258 23.8896C848.516 23.9021 847.924 24.5809 847.935 25.4063C847.401 25.4147 846.975 25.8971 846.982 26.49L847.002 28.142C847.007 28.5201 848.094 28.8128 849.431 28.7877C850.768 28.7651 851.846 28.4418 851.838 28.0658L851.807 26.4138C851.796 25.8217 851.354 25.3485 850.82 25.3577Z" fill="#616262" class="cap" />
    <path d="M827.06 25.4063C827.071 24.5809 826.478 23.9021 825.736 23.8896L825.545 23.8867C824.803 23.8741 824.189 24.5328 824.174 25.3577C823.641 25.3485 823.199 25.8217 823.187 26.4138L823.156 28.0658C823.149 28.4418 824.227 28.7651 825.564 28.7877C826.9 28.8128 827.988 28.5201 827.993 28.142L828.013 26.49C828.021 25.8971 827.594 25.4147 827.06 25.4063Z" fill="#616262" class="cap" />
    <path d="M779.597 23.2142C779.663 22.3905 779.118 21.6803 778.38 21.617L778.188 21.6007C777.451 21.5371 776.796 22.1522 776.725 22.9742C776.194 22.9286 775.722 23.3699 775.67 23.96L775.527 25.6061C775.494 25.9808 776.547 26.3774 777.878 26.4921C779.21 26.6035 780.314 26.3799 780.344 26.006L780.475 24.359C780.522 23.7686 780.128 23.256 779.597 23.2142Z" fill="#616262" class="cap" />
    <path d="M803.297 24.7978C803.335 23.972 802.765 23.2823 802.024 23.2434L801.833 23.2338C801.092 23.1961 800.458 23.8334 800.416 24.6575C799.883 24.6303 799.427 25.088 799.396 25.6797L799.311 27.3296C799.291 27.7056 800.358 28.0653 801.693 28.1331C803.028 28.1993 804.125 27.9363 804.141 27.5624L804.215 25.9117C804.241 25.32 803.831 24.8213 803.297 24.7978Z" fill="#616262" class="cap" />
    <path d="M990.957 6.14048C990.699 5.35616 989.935 4.90518 989.248 5.12921L989.07 5.18533C988.379 5.40182 988.018 6.21586 988.264 7.00311C987.765 7.15972 987.501 7.74555 987.676 8.3117L988.164 9.8904C988.274 10.2501 989.39 10.22 990.654 9.82382C991.914 9.41386 992.836 8.78573 992.717 8.42979L992.195 6.86241C992.008 6.30045 991.453 5.97717 990.957 6.14048Z" fill="#616262" class="cap" />
    <path d="M968.395 12.4711C968.206 11.668 967.475 11.1529 966.763 11.3204L966.578 11.364C965.863 11.5252 965.43 12.307 965.611 13.1122C965.095 13.2278 964.781 13.7902 964.91 14.3685L965.269 15.9811C965.351 16.3479 966.471 16.4116 967.769 16.1176C969.064 15.8128 970.044 15.2688 969.956 14.9028L969.575 13.2957C969.438 12.7195 968.91 12.3501 968.395 12.4711Z" fill="#616262" class="cap" />
    <path d="M921.847 20.4689C921.744 19.6502 921.066 19.0602 920.332 19.1511L920.143 19.1745C919.409 19.2654 918.893 20.0032 918.991 20.8223C918.462 20.8839 918.089 21.4107 918.159 21.999L918.353 23.6397C918.397 24.0136 919.508 24.1941 920.833 24.0266C922.158 23.8624 923.194 23.4269 923.146 23.0538L922.939 21.4148C922.864 20.8269 922.375 20.4036 921.847 20.4689Z" fill="#616262" class="cap" />
    <path d="M945.27 17.1315C945.129 16.3179 944.428 15.7639 943.701 15.887L943.513 15.9184C942.786 16.0386 942.305 16.7961 942.44 17.6097C941.916 17.6968 941.569 18.2408 941.665 18.8254L941.932 20.456C941.992 20.8274 943.109 20.9518 944.425 20.734C945.74 20.5096 946.752 20.0196 946.687 19.6503L946.402 18.0226C946.3 17.4393 945.793 17.0402 945.27 17.1315Z" fill="#616262" class="cap" />
    <path d="M1402.55 17.6097C1402.69 16.7961 1402.21 16.0386 1401.48 15.9184L1401.29 15.887C1400.57 15.7639 1399.87 16.3179 1399.72 17.1315C1399.2 17.0402 1398.69 17.4393 1398.59 18.0226L1398.31 19.6503C1398.24 20.0196 1399.26 20.5096 1400.57 20.734C1401.89 20.9518 1403 20.8274 1403.06 20.456L1403.33 18.8254C1403.43 18.2408 1403.08 17.6968 1402.55 17.6097Z" fill="#616262" class="cap" />
    <path d="M1426 20.8223C1426.1 20.0032 1425.58 19.2654 1424.85 19.1745L1424.66 19.1511C1423.93 19.0602 1423.25 19.6502 1423.15 20.4689C1422.62 20.4036 1422.13 20.8269 1422.05 21.4148L1421.85 23.0538C1421.8 23.4269 1422.83 23.8624 1424.16 24.0266C1425.48 24.1941 1426.6 24.0136 1426.64 23.6397L1426.83 21.999C1426.9 21.4107 1426.53 20.8839 1426 20.8223Z" fill="#616262" class="cap" />
    <path d="M1379.4 13.1122C1379.59 12.307 1379.15 11.5252 1378.44 11.364L1378.25 11.3204C1377.54 11.1529 1376.81 11.668 1376.62 12.4711C1376.11 12.3501 1375.58 12.7195 1375.44 13.2957L1375.06 14.9028C1374.97 15.2688 1375.95 15.8128 1377.25 16.1176C1378.54 16.4116 1379.66 16.3479 1379.75 15.9811L1380.1 14.3685C1380.23 13.7902 1379.92 13.2278 1379.4 13.1122Z" fill="#616262" class="cap" />
    <path d="M1356.73 7.00311C1356.98 6.21586 1356.62 5.40182 1355.93 5.18533L1355.75 5.12921C1355.06 4.90518 1354.3 5.35616 1354.04 6.14048C1353.54 5.97717 1352.99 6.30045 1352.8 6.86241L1352.28 8.42979C1352.16 8.78573 1353.08 9.41386 1354.34 9.82382C1355.61 10.22 1356.72 10.2501 1356.83 9.8904L1357.32 8.3117C1357.5 7.74555 1357.23 7.15972 1356.73 7.00311Z" fill="#616262" class="cap" />
    <path d="M1544.57 24.6575C1544.52 23.8334 1543.89 23.1961 1543.15 23.2338L1542.96 23.2434C1542.22 23.2823 1541.65 23.972 1541.69 24.7978C1541.15 24.8213 1540.74 25.32 1540.77 25.9117L1540.84 27.5624C1540.86 27.9363 1541.95 28.1993 1543.29 28.1331C1544.62 28.0653 1545.69 27.7056 1545.67 27.3296L1545.59 25.6797C1545.56 25.088 1545.1 24.6303 1544.57 24.6575Z" fill="#616262" class="cap" />
    <path d="M1568.26 22.9742C1568.19 22.1522 1567.54 21.5371 1566.8 21.6007L1566.61 21.617C1565.87 21.6803 1565.32 22.3905 1565.39 23.2142C1564.86 23.256 1564.47 23.7686 1564.51 24.359L1564.64 26.006C1564.67 26.3799 1565.78 26.6035 1567.11 26.4921C1568.44 26.3774 1569.49 25.9808 1569.46 25.6061L1569.32 23.96C1569.27 23.3699 1568.79 22.9286 1568.26 22.9742Z" fill="#616262" class="cap" />
    <path d="M1520.82 25.3577C1520.81 24.5328 1520.19 23.8741 1519.45 23.8867L1519.26 23.8896C1518.52 23.9021 1517.92 24.5809 1517.94 25.4063C1517.4 25.4147 1516.97 25.8971 1516.98 26.49L1517 28.142C1517.01 28.5201 1518.09 28.8128 1519.43 28.7877C1520.77 28.7651 1521.85 28.4418 1521.84 28.0658L1521.81 26.4138C1521.8 25.8217 1521.35 25.3485 1520.82 25.3577Z" fill="#616262" class="cap" />
    <path d="M1497.06 25.4063C1497.07 24.5809 1496.48 23.9021 1495.74 23.8896L1495.54 23.8867C1494.8 23.8741 1494.19 24.5328 1494.17 25.3577C1493.64 25.3485 1493.2 25.8217 1493.19 26.4138L1493.16 28.0658C1493.15 28.4418 1494.23 28.7651 1495.56 28.7877C1496.9 28.8128 1497.99 28.5201 1497.99 28.142L1498.01 26.49C1498.02 25.8971 1497.59 25.4147 1497.06 25.4063Z" fill="#616262" class="cap" />
    <path d="M1449.6 23.2142C1449.66 22.3905 1449.12 21.6803 1448.38 21.617L1448.19 21.6007C1447.45 21.5371 1446.8 22.1522 1446.73 22.9742C1446.19 22.9286 1445.72 23.3699 1445.67 23.96L1445.53 25.6061C1445.49 25.9808 1446.55 26.3774 1447.88 26.4921C1449.21 26.6035 1450.31 26.3799 1450.34 26.006L1450.47 24.359C1450.52 23.7686 1450.13 23.256 1449.6 23.2142Z" fill="#616262" class="cap" />
    <path d="M1473.3 24.7978C1473.34 23.972 1472.76 23.2823 1472.02 23.2434L1471.83 23.2338C1471.09 23.1961 1470.46 23.8334 1470.42 24.6575C1469.88 24.6303 1469.43 25.088 1469.4 25.6797L1469.31 27.3296C1469.29 27.7056 1470.36 28.0653 1471.69 28.1331C1473.03 28.1993 1474.12 27.9363 1474.14 27.5624L1474.21 25.9117C1474.24 25.32 1473.83 24.8213 1473.3 24.7978Z" fill="#616262" class="cap" />
    <path d="M1660.96 6.14048C1660.7 5.35616 1659.94 4.90518 1659.25 5.12921L1659.07 5.18533C1658.38 5.40182 1658.02 6.21586 1658.26 7.00311C1657.76 7.15972 1657.5 7.74555 1657.68 8.3117L1658.16 9.8904C1658.27 10.2501 1659.39 10.22 1660.65 9.82382C1661.91 9.41386 1662.84 8.78573 1662.72 8.42979L1662.19 6.86241C1662.01 6.30045 1661.45 5.97717 1660.96 6.14048Z" fill="#616262" class="cap" />
    <path d="M1638.4 12.4711C1638.21 11.668 1637.48 11.1529 1636.76 11.3204L1636.58 11.364C1635.86 11.5252 1635.43 12.307 1635.61 13.1122C1635.1 13.2278 1634.78 13.7902 1634.91 14.3685L1635.27 15.9811C1635.35 16.3479 1636.47 16.4116 1637.77 16.1176C1639.06 15.8128 1640.04 15.2688 1639.96 14.9028L1639.57 13.2957C1639.44 12.7195 1638.91 12.3501 1638.4 12.4711Z" fill="#616262" class="cap" />
    <path d="M1591.85 20.4689C1591.74 19.6502 1591.07 19.0602 1590.33 19.1511L1590.14 19.1745C1589.41 19.2654 1588.89 20.0032 1588.99 20.8223C1588.46 20.8839 1588.09 21.4107 1588.16 21.999L1588.35 23.6397C1588.4 24.0136 1589.51 24.1941 1590.83 24.0266C1592.16 23.8624 1593.19 23.4269 1593.15 23.0538L1592.94 21.4148C1592.86 20.8269 1592.38 20.4036 1591.85 20.4689Z" fill="#616262" class="cap" />
    <path d="M1615.27 17.1315C1615.13 16.3179 1614.43 15.7639 1613.7 15.887L1613.51 15.9184C1612.79 16.0386 1612.31 16.7961 1612.44 17.6097C1611.92 17.6968 1611.57 18.2408 1611.66 18.8254L1611.93 20.456C1611.99 20.8274 1613.11 20.9518 1614.42 20.734C1615.74 20.5096 1616.75 20.0196 1616.69 19.6503L1616.4 18.0226C1616.3 17.4393 1615.79 17.0402 1615.27 17.1315Z" fill="#616262" class="cap" />
    <path d="M397.555 17.6097C397.69 16.7961 397.209 16.0386 396.482 15.9184L396.294 15.887C395.567 15.7639 394.866 16.3179 394.725 17.1315C394.202 17.0402 393.695 17.4393 393.593 18.0226L393.308 19.6503C393.243 20.0196 394.255 20.5096 395.57 20.734C396.886 20.9518 398.003 20.8274 398.063 20.456L398.33 18.8254C398.426 18.2408 398.079 17.6968 397.555 17.6097Z" fill="#616262" class="cap" />
    <path d="M421.001 20.8223C421.099 20.0032 420.584 19.2654 419.85 19.1745L419.66 19.1511C418.926 19.0602 418.248 19.6502 418.145 20.4689C417.617 20.4036 417.128 20.8269 417.054 21.4148L416.846 23.0538C416.798 23.4269 417.834 23.8624 419.159 24.0266C420.484 24.1941 421.595 24.0136 421.639 23.6397L421.833 21.999C421.903 21.4107 421.53 20.8839 421.001 20.8223Z" fill="#616262" class="cap" />
    <path d="M374.404 13.1122C374.585 12.307 374.152 11.5252 373.437 11.364L373.252 11.3204C372.54 11.1529 371.809 11.668 371.62 12.4711C371.106 12.3501 370.577 12.7195 370.44 13.2957L370.058 14.9028C369.971 15.2688 370.95 15.8128 372.246 16.1176C373.544 16.4116 374.664 16.3479 374.745 15.9811L375.105 14.3685C375.234 13.7902 374.92 13.2278 374.404 13.1122Z" fill="#616262" class="cap" />
    <path d="M351.733 7.00311C351.979 6.21586 351.618 5.40182 350.928 5.18533L350.749 5.12921C350.062 4.90518 349.298 5.35616 349.04 6.14048C348.544 5.97717 347.99 6.30045 347.802 6.86241L347.281 8.42979C347.162 8.78573 348.083 9.41386 349.343 9.82382C350.608 10.22 351.723 10.2501 351.833 9.8904L352.321 8.3117C352.496 7.74555 352.232 7.15972 351.733 7.00311Z" fill="#616262" class="cap" />
    <path d="M539.566 24.6575C539.524 23.8334 538.89 23.1961 538.149 23.2338L537.958 23.2434C537.217 23.2823 536.647 23.972 536.685 24.7978C536.152 24.8213 535.741 25.32 535.767 25.9117L535.841 27.5624C535.858 27.9363 536.954 28.1993 538.289 28.1331C539.624 28.0653 540.691 27.7056 540.671 27.3296L540.586 25.6797C540.556 25.088 540.099 24.6303 539.566 24.6575Z" fill="#616262" class="cap" />
    <path d="M563.263 22.9742C563.192 22.1522 562.537 21.5371 561.799 21.6007L561.608 21.617C560.87 21.6803 560.325 22.3905 560.391 23.2142C559.86 23.256 559.466 23.7686 559.513 24.359L559.644 26.006C559.674 26.3799 560.778 26.6035 562.11 26.4921C563.441 26.3774 564.493 25.9808 564.461 25.6061L564.318 23.96C564.266 23.3699 563.794 22.9286 563.263 22.9742Z" fill="#616262" class="cap" />
    <path d="M515.82 25.3577C515.805 24.5328 515.192 23.8741 514.45 23.8867L514.258 23.8896C513.516 23.9021 512.924 24.5809 512.935 25.4063C512.401 25.4147 511.975 25.8971 511.982 26.49L512.002 28.142C512.007 28.5201 513.094 28.8128 514.431 28.7877C515.768 28.7651 516.846 28.4418 516.838 28.0658L516.807 26.4138C516.796 25.8217 516.354 25.3485 515.82 25.3577Z" fill="#616262" class="cap" />
    <path d="M492.06 25.4063C492.071 24.5809 491.478 23.9021 490.736 23.8896L490.545 23.8867C489.803 23.8741 489.189 24.5328 489.174 25.3577C488.641 25.3485 488.199 25.8217 488.187 26.4138L488.156 28.0658C488.149 28.4418 489.227 28.7651 490.564 28.7877C491.9 28.8128 492.988 28.5201 492.993 28.142L493.013 26.49C493.021 25.8971 492.594 25.4147 492.06 25.4063Z" fill="#616262" class="cap" />
    <path d="M444.597 23.2142C444.663 22.3905 444.118 21.6803 443.38 21.617L443.188 21.6007C442.451 21.5371 441.796 22.1522 441.725 22.9742C441.194 22.9286 440.722 23.3699 440.67 23.96L440.527 25.6061C440.494 25.9808 441.547 26.3774 442.878 26.4921C444.21 26.6035 445.314 26.3799 445.344 26.006L445.475 24.359C445.522 23.7686 445.128 23.256 444.597 23.2142Z" fill="#616262" class="cap" />
    <path d="M468.297 24.7978C468.335 23.972 467.765 23.2823 467.025 23.2434L466.833 23.2338C466.092 23.1961 465.458 23.8334 465.417 24.6575C464.883 24.6303 464.427 25.088 464.396 25.6797L464.311 27.3296C464.291 27.7056 465.358 28.0653 466.693 28.1331C468.028 28.1993 469.125 27.9363 469.141 27.5624L469.215 25.9117C469.241 25.32 468.831 24.8213 468.297 24.7978Z" fill="#616262" class="cap" />
    <path d="M655.957 6.14048C655.699 5.35616 654.935 4.90518 654.248 5.12921L654.07 5.18533C653.379 5.40182 653.018 6.21586 653.264 7.00311C652.765 7.15972 652.501 7.74555 652.676 8.3117L653.164 9.8904C653.274 10.2501 654.39 10.22 655.654 9.82382C656.914 9.41386 657.836 8.78573 657.717 8.42979L657.195 6.86241C657.008 6.30045 656.453 5.97717 655.957 6.14048Z" fill="#616262" class="cap" />
    <path d="M633.395 12.4711C633.206 11.668 632.475 11.1529 631.763 11.3204L631.578 11.364C630.863 11.5252 630.43 12.307 630.611 13.1122C630.095 13.2278 629.781 13.7902 629.91 14.3685L630.269 15.9811C630.351 16.3479 631.471 16.4116 632.769 16.1176C634.064 15.8128 635.044 15.2688 634.956 14.9028L634.575 13.2957C634.438 12.7195 633.91 12.3501 633.395 12.4711Z" fill="#616262" class="cap" />
    <path d="M586.847 20.4689C586.744 19.6502 586.066 19.0602 585.332 19.1511L585.143 19.1745C584.409 19.2654 583.893 20.0032 583.991 20.8223C583.462 20.8839 583.089 21.4107 583.159 21.999L583.353 23.6397C583.397 24.0136 584.508 24.1941 585.833 24.0266C587.158 23.8624 588.194 23.4269 588.146 23.0538L587.939 21.4148C587.864 20.8269 587.375 20.4036 586.847 20.4689Z" fill="#616262" class="cap" />
    <path d="M610.27 17.1315C610.129 16.3179 609.428 15.7639 608.701 15.887L608.513 15.9184C607.786 16.0386 607.305 16.7961 607.44 17.6097C606.916 17.6968 606.569 18.2408 606.665 18.8254L606.932 20.456C606.992 20.8274 608.109 20.9518 609.425 20.734C610.74 20.5096 611.752 20.0196 611.687 19.6503L611.402 18.0226C611.3 17.4393 610.793 17.0402 610.27 17.1315Z" fill="#616262" class="cap" />
    <path d="M1067.55 17.6097C1067.69 16.7961 1067.21 16.0386 1066.48 15.9184L1066.29 15.887C1065.57 15.7639 1064.87 16.3179 1064.72 17.1315C1064.2 17.0402 1063.69 17.4393 1063.59 18.0226L1063.31 19.6503C1063.24 20.0196 1064.26 20.5096 1065.57 20.734C1066.89 20.9518 1068 20.8274 1068.06 20.456L1068.33 18.8254C1068.43 18.2408 1068.08 17.6968 1067.55 17.6097Z" fill="#616262" class="cap" />
    <path d="M1091 20.8223C1091.1 20.0032 1090.58 19.2654 1089.85 19.1745L1089.66 19.1511C1088.93 19.0602 1088.25 19.6502 1088.15 20.4689C1087.62 20.4036 1087.13 20.8269 1087.05 21.4148L1086.85 23.0538C1086.8 23.4269 1087.83 23.8624 1089.16 24.0266C1090.48 24.1941 1091.6 24.0136 1091.64 23.6397L1091.83 21.999C1091.9 21.4107 1091.53 20.8839 1091 20.8223Z" fill="#616262" class="cap" />
    <path d="M1044.4 13.1122C1044.59 12.307 1044.15 11.5252 1043.44 11.364L1043.25 11.3204C1042.54 11.1529 1041.81 11.668 1041.62 12.4711C1041.11 12.3501 1040.58 12.7195 1040.44 13.2957L1040.06 14.9028C1039.97 15.2688 1040.95 15.8128 1042.25 16.1176C1043.54 16.4116 1044.66 16.3479 1044.75 15.9811L1045.1 14.3685C1045.23 13.7902 1044.92 13.2278 1044.4 13.1122Z" fill="#616262" class="cap" />
    <path d="M1021.73 7.00311C1021.98 6.21586 1021.62 5.40182 1020.93 5.18533L1020.75 5.12921C1020.06 4.90518 1019.3 5.35616 1019.04 6.14048C1018.54 5.97717 1017.99 6.30045 1017.8 6.86241L1017.28 8.42979C1017.16 8.78573 1018.08 9.41386 1019.34 9.82382C1020.61 10.22 1021.72 10.2501 1021.83 9.8904L1022.32 8.3117C1022.5 7.74555 1022.23 7.15972 1021.73 7.00311Z" fill="#616262" class="cap" />
    <path d="M1209.57 24.6575C1209.52 23.8334 1208.89 23.1961 1208.15 23.2338L1207.96 23.2434C1207.22 23.2823 1206.65 23.972 1206.69 24.7978C1206.15 24.8213 1205.74 25.32 1205.77 25.9117L1205.84 27.5624C1205.86 27.9363 1206.95 28.1993 1208.29 28.1331C1209.62 28.0653 1210.69 27.7056 1210.67 27.3296L1210.59 25.6797C1210.56 25.088 1210.1 24.6303 1209.57 24.6575Z" fill="#616262" class="cap" />
    <path d="M1233.26 22.9742C1233.19 22.1522 1232.54 21.5371 1231.8 21.6007L1231.61 21.617C1230.87 21.6803 1230.32 22.3905 1230.39 23.2142C1229.86 23.256 1229.47 23.7686 1229.51 24.359L1229.64 26.006C1229.67 26.3799 1230.78 26.6035 1232.11 26.4921C1233.44 26.3774 1234.49 25.9808 1234.46 25.6061L1234.32 23.96C1234.27 23.3699 1233.79 22.9286 1233.26 22.9742Z" fill="#616262" class="cap" />
    <path d="M1185.82 25.3577C1185.81 24.5328 1185.19 23.8741 1184.45 23.8867L1184.26 23.8896C1183.52 23.9021 1182.92 24.5809 1182.94 25.4063C1182.4 25.4147 1181.97 25.8971 1181.98 26.49L1182 28.142C1182.01 28.5201 1183.09 28.8128 1184.43 28.7877C1185.77 28.7651 1186.85 28.4418 1186.84 28.0658L1186.81 26.4138C1186.8 25.8217 1186.35 25.3485 1185.82 25.3577Z" fill="#616262" class="cap" />
    <path d="M1162.06 25.4063C1162.07 24.5809 1161.48 23.9021 1160.74 23.8896L1160.54 23.8867C1159.8 23.8741 1159.19 24.5328 1159.17 25.3577C1158.64 25.3485 1158.2 25.8217 1158.19 26.4138L1158.16 28.0658C1158.15 28.4418 1159.23 28.7651 1160.56 28.7877C1161.9 28.8128 1162.99 28.5201 1162.99 28.142L1163.01 26.49C1163.02 25.8971 1162.59 25.4147 1162.06 25.4063Z" fill="#616262" class="cap" />
    <path d="M1114.6 23.2142C1114.66 22.3905 1114.12 21.6803 1113.38 21.617L1113.19 21.6007C1112.45 21.5371 1111.8 22.1522 1111.73 22.9742C1111.19 22.9286 1110.72 23.3699 1110.67 23.96L1110.53 25.6061C1110.49 25.9808 1111.55 26.3774 1112.88 26.4921C1114.21 26.6035 1115.31 26.3799 1115.34 26.006L1115.47 24.359C1115.52 23.7686 1115.13 23.256 1114.6 23.2142Z" fill="#616262" class="cap" />
    <path d="M1138.3 24.7978C1138.34 23.972 1137.76 23.2823 1137.02 23.2434L1136.83 23.2338C1136.09 23.1961 1135.46 23.8334 1135.42 24.6575C1134.88 24.6303 1134.43 25.088 1134.4 25.6797L1134.31 27.3296C1134.29 27.7056 1135.36 28.0653 1136.69 28.1331C1138.03 28.1993 1139.12 27.9363 1139.14 27.5624L1139.21 25.9117C1139.24 25.32 1138.83 24.8213 1138.3 24.7978Z" fill="#616262" class="cap" />
    <path d="M1325.96 6.14048C1325.7 5.35616 1324.94 4.90518 1324.25 5.12921L1324.07 5.18533C1323.38 5.40182 1323.02 6.21586 1323.26 7.00311C1322.76 7.15972 1322.5 7.74555 1322.68 8.3117L1323.16 9.8904C1323.27 10.2501 1324.39 10.22 1325.65 9.82382C1326.91 9.41386 1327.84 8.78573 1327.72 8.42979L1327.19 6.86241C1327.01 6.30045 1326.45 5.97717 1325.96 6.14048Z" fill="#616262" class="cap" />
    <path d="M1303.4 12.4711C1303.21 11.668 1302.48 11.1529 1301.76 11.3204L1301.58 11.364C1300.86 11.5252 1300.43 12.307 1300.61 13.1122C1300.1 13.2278 1299.78 13.7902 1299.91 14.3685L1300.27 15.9811C1300.35 16.3479 1301.47 16.4116 1302.77 16.1176C1304.06 15.8128 1305.04 15.2688 1304.96 14.9028L1304.57 13.2957C1304.44 12.7195 1303.91 12.3501 1303.4 12.4711Z" fill="#616262" class="cap" />
    <path d="M1256.85 20.4689C1256.74 19.6502 1256.07 19.0602 1255.33 19.1511L1255.14 19.1745C1254.41 19.2654 1253.89 20.0032 1253.99 20.8223C1253.46 20.8839 1253.09 21.4107 1253.16 21.999L1253.35 23.6397C1253.4 24.0136 1254.51 24.1941 1255.83 24.0266C1257.16 23.8624 1258.19 23.4269 1258.15 23.0538L1257.94 21.4148C1257.86 20.8269 1257.38 20.4036 1256.85 20.4689Z" fill="#616262" class="cap" />
    <path d="M1280.27 17.1315C1280.13 16.3179 1279.43 15.7639 1278.7 15.887L1278.51 15.9184C1277.79 16.0386 1277.31 16.7961 1277.44 17.6097C1276.92 17.6968 1276.57 18.2408 1276.66 18.8254L1276.93 20.456C1276.99 20.8274 1278.11 20.9518 1279.42 20.734C1280.74 20.5096 1281.75 20.0196 1281.69 19.6503L1281.4 18.0226C1281.3 17.4393 1280.79 17.0402 1280.27 17.1315Z" fill="#616262" class="cap" />
    <path d="M1737.55 17.6097C1737.69 16.7961 1737.21 16.0386 1736.48 15.9184L1736.29 15.887C1735.57 15.7639 1734.87 16.3179 1734.72 17.1315C1734.2 17.0402 1733.69 17.4393 1733.59 18.0226L1733.31 19.6503C1733.24 20.0196 1734.26 20.5096 1735.57 20.734C1736.89 20.9518 1738 20.8274 1738.06 20.456L1738.33 18.8254C1738.43 18.2408 1738.08 17.6968 1737.55 17.6097Z" fill="#616262" class="cap" />
    <path d="M1761 20.8223C1761.1 20.0032 1760.58 19.2654 1759.85 19.1745L1759.66 19.1511C1758.93 19.0602 1758.25 19.6502 1758.15 20.4689C1757.62 20.4036 1757.13 20.8269 1757.05 21.4148L1756.85 23.0538C1756.8 23.4269 1757.83 23.8624 1759.16 24.0266C1760.48 24.1941 1761.6 24.0136 1761.64 23.6397L1761.83 21.999C1761.9 21.4107 1761.53 20.8839 1761 20.8223Z" fill="#616262" class="cap" />
    <path d="M1714.4 13.1122C1714.59 12.307 1714.15 11.5252 1713.44 11.364L1713.25 11.3204C1712.54 11.1529 1711.81 11.668 1711.62 12.4711C1711.11 12.3501 1710.58 12.7195 1710.44 13.2957L1710.06 14.9028C1709.97 15.2688 1710.95 15.8128 1712.25 16.1176C1713.54 16.4116 1714.66 16.3479 1714.75 15.9811L1715.11 14.3685C1715.23 13.7902 1714.92 13.2278 1714.4 13.1122Z" fill="#616262" class="cap" />
    <path d="M1691.73 7.00311C1691.98 6.21586 1691.62 5.40182 1690.93 5.18533L1690.75 5.12921C1690.06 4.90518 1689.3 5.35616 1689.04 6.14048C1688.54 5.97717 1687.99 6.30045 1687.8 6.86241L1687.28 8.42979C1687.16 8.78573 1688.08 9.41386 1689.34 9.82382C1690.61 10.22 1691.72 10.2501 1691.83 9.8904L1692.32 8.3117C1692.5 7.74555 1692.23 7.15972 1691.73 7.00311Z" fill="#616262" class="cap" />
    <path d="M1879.57 24.6575C1879.52 23.8334 1878.89 23.1961 1878.15 23.2338L1877.96 23.2434C1877.22 23.2823 1876.65 23.972 1876.69 24.7978C1876.15 24.8213 1875.74 25.32 1875.77 25.9117L1875.84 27.5624C1875.86 27.9363 1876.95 28.1993 1878.29 28.1331C1879.62 28.0653 1880.69 27.7056 1880.67 27.3296L1880.59 25.6797C1880.56 25.088 1880.1 24.6303 1879.57 24.6575Z" fill="#616262" class="cap" />
    <path d="M1903.26 22.9742C1903.19 22.1522 1902.54 21.5371 1901.8 21.6007L1901.61 21.617C1900.87 21.6803 1900.32 22.3905 1900.39 23.2142C1899.86 23.256 1899.47 23.7686 1899.51 24.359L1899.64 26.006C1899.67 26.3799 1900.78 26.6035 1902.11 26.4921C1903.44 26.3774 1904.49 25.9808 1904.46 25.6061L1904.32 23.96C1904.27 23.3699 1903.79 22.9286 1903.26 22.9742Z" fill="#616262" class="cap" />
    <path d="M1855.82 25.3577C1855.81 24.5328 1855.19 23.8741 1854.45 23.8867L1854.26 23.8896C1853.52 23.9021 1852.92 24.5809 1852.94 25.4063C1852.4 25.4147 1851.97 25.8971 1851.98 26.49L1852 28.142C1852.01 28.5201 1853.09 28.8128 1854.43 28.7877C1855.77 28.7651 1856.85 28.4418 1856.84 28.0658L1856.81 26.4138C1856.8 25.8217 1856.35 25.3485 1855.82 25.3577Z" fill="#616262" class="cap" />
    <path d="M1832.06 25.4063C1832.07 24.5809 1831.48 23.9021 1830.74 23.8896L1830.54 23.8867C1829.8 23.8741 1829.19 24.5328 1829.17 25.3577C1828.64 25.3485 1828.2 25.8217 1828.19 26.4138L1828.16 28.0658C1828.15 28.4418 1829.23 28.7651 1830.56 28.7877C1831.9 28.8128 1832.99 28.5201 1832.99 28.142L1833.01 26.49C1833.02 25.8971 1832.59 25.4147 1832.06 25.4063Z" fill="#616262" class="cap" />
    <path d="M1784.6 23.2142C1784.66 22.3905 1784.12 21.6803 1783.38 21.617L1783.19 21.6007C1782.45 21.5371 1781.8 22.1522 1781.73 22.9742C1781.19 22.9286 1780.72 23.3699 1780.67 23.96L1780.53 25.6061C1780.49 25.9808 1781.55 26.3774 1782.88 26.4921C1784.21 26.6035 1785.31 26.3799 1785.34 26.006L1785.47 24.359C1785.52 23.7686 1785.13 23.256 1784.6 23.2142Z" fill="#616262" class="cap" />
    <path d="M1808.3 24.7978C1808.34 23.972 1807.76 23.2823 1807.02 23.2434L1806.83 23.2338C1806.09 23.1961 1805.46 23.8334 1805.42 24.6575C1804.88 24.6303 1804.43 25.088 1804.4 25.6797L1804.31 27.3296C1804.29 27.7056 1805.36 28.0653 1806.69 28.1331C1808.03 28.1993 1809.12 27.9363 1809.14 27.5624L1809.21 25.9117C1809.24 25.32 1808.83 24.8213 1808.3 24.7978Z" fill="#616262" class="cap" />
    <path d="M320.457 5.427C319.72 5.66987 318.974 5.90856 318.229 6.14306C314.934 7.18156 311.563 8.15724 308.171 9.07431C304.779 9.99137 301.362 10.8456 297.966 11.6371C297.195 11.8171 296.421 11.9972 295.65 12.1731C288.489 13.7894 281.446 15.1504 274.888 16.2768C274.097 16.415 273.314 16.549 272.539 16.6788C268.285 17.3865 264.265 17.9979 260.584 18.5171C257.263 18.9903 254.211 19.3881 251.51 19.7231C250.685 19.8278 249.893 19.9241 249.135 20.0162C247.456 20.2214 245.949 20.3973 244.63 20.5439C242.699 20.7533 241.179 20.9166 240.145 21.0296C239.11 21.1343 238.558 21.1888 238.558 21.1888V21.19C238.556 21.19 238.005 21.2457 236.97 21.35C235.933 21.4492 234.413 21.5949 232.478 21.78C228.607 22.1355 223.071 22.6146 216.415 23.061C209.76 23.5099 201.985 23.9265 193.646 24.2209C185.307 24.5182 176.404 24.6686 167.5 24.6774C158.596 24.6686 149.693 24.5182 141.354 24.2209C133.015 23.9265 125.24 23.5099 118.585 23.061C111.929 22.6146 106.393 22.1355 102.522 21.78C100.587 21.5949 99.0666 21.4492 98.0302 21.35C96.9955 21.2457 96.4436 21.19 96.4423 21.19V21.1888C96.4423 21.1888 95.8896 21.1343 94.8552 21.0296C93.8209 20.9166 92.3009 20.7533 90.3704 20.5439C89.0514 20.3973 87.5439 20.2214 85.8647 20.0162C85.1068 19.9241 84.3153 19.8278 83.4904 19.7231C80.7894 19.3881 77.7367 18.9903 74.4161 18.5171C70.7353 17.9979 66.7152 17.3865 62.4608 16.6788C61.6861 16.549 60.903 16.415 60.1116 16.2768C53.5539 15.1504 46.5106 13.7936 39.3499 12.1731C38.5794 11.9972 37.8089 11.8213 37.0384 11.6371C33.6382 10.8456 30.2212 9.99137 26.8293 9.07431C23.4374 8.15724 20.0665 7.18156 16.7709 6.14306C16.0256 5.90856 15.2802 5.66987 14.5432 5.427C10.4059 4.07862 6.3985 2.62974 2.61719 1.09293C1.73362 0.736994 0.858019 0.372688 0 0V0.665811C0.783062 1.00081 1.57869 1.33162 2.38687 1.65825C6.11794 3.17831 10.0709 4.60625 14.1412 5.93787C15.0206 6.231 15.9083 6.51156 16.8002 6.78793C20.0372 7.8055 23.3411 8.76444 26.6702 9.66057C29.9992 10.5609 33.3492 11.3984 36.6825 12.1814C37.6037 12.395 38.5208 12.6044 39.4337 12.8138C46.4477 14.3966 53.3487 15.7282 59.7891 16.8379C60.7313 17.0012 61.6609 17.1604 62.5822 17.3111C66.7613 18.0104 70.7101 18.6093 74.3323 19.1201C77.5692 19.5808 80.5507 19.9702 83.1972 20.3052C84.1813 20.4266 85.1193 20.5397 86.0112 20.6486C87.6067 20.8412 89.043 21.0045 90.3034 21.1469C92.2339 21.3604 93.7539 21.5237 94.7882 21.6368C95.8267 21.7415 96.3795 21.7959 96.3795 21.7959L96.4235 21.3717L96.3799 21.7972C96.3799 21.7972 96.9331 21.8529 97.9699 21.9576C99.0071 22.0568 100.529 22.2025 102.466 22.388C106.341 22.7436 111.882 23.2235 118.544 23.6703C125.205 24.1192 132.987 24.5367 141.332 24.831C149.678 25.1288 158.589 25.2791 167.5 25.2879C176.411 25.2791 185.322 25.1288 193.668 24.831C202.013 24.5367 209.795 24.1192 216.456 23.6703C223.118 23.2235 228.659 22.7436 232.534 22.388C234.471 22.2025 235.993 22.0568 237.03 21.9576C238.067 21.8529 238.62 21.7972 238.62 21.7972L238.577 21.3717L238.62 21.7959C238.62 21.7959 239.173 21.7415 240.212 21.6368C241.246 21.5237 242.766 21.3604 244.697 21.1469C245.957 21.0045 247.393 20.8412 248.989 20.6486C249.881 20.5397 250.819 20.4266 251.803 20.3052C254.449 19.9702 257.431 19.5808 260.668 19.1201C264.29 18.6093 268.239 18.0104 272.418 17.3111C273.339 17.1604 274.269 17.0012 275.211 16.8379C281.651 15.7282 288.552 14.3966 295.566 12.8138C296.479 12.6044 297.396 12.395 298.318 12.1814C301.651 11.3984 305.001 10.5609 308.33 9.66057C311.659 8.76444 314.963 7.8055 318.2 6.78793C319.092 6.51156 319.979 6.231 320.859 5.93787C324.929 4.60625 328.882 3.17831 332.613 1.65825C333.421 1.33162 334.217 1.00081 335 0.665811V0C334.142 0.372688 333.266 0.736994 332.383 1.09293C328.602 2.62974 324.594 4.07862 320.457 5.427Z" fill="#424243" class="tross" />
    <path d="M990.457 5.427C989.72 5.66987 988.974 5.90856 988.229 6.14306C984.934 7.18156 981.563 8.15724 978.171 9.07431C974.779 9.99137 971.362 10.8456 967.966 11.6371C967.195 11.8171 966.421 11.9972 965.65 12.1731C958.489 13.7894 951.446 15.1504 944.888 16.2768C944.097 16.415 943.314 16.549 942.539 16.6788C938.285 17.3865 934.265 17.9979 930.584 18.5171C927.263 18.9903 924.211 19.3881 921.51 19.7231C920.685 19.8278 919.893 19.9241 919.135 20.0162C917.456 20.2214 915.949 20.3973 914.63 20.5439C912.699 20.7533 911.179 20.9166 910.145 21.0296C909.11 21.1343 908.558 21.1888 908.558 21.1888V21.19C908.556 21.19 908.005 21.2457 906.97 21.35C905.933 21.4492 904.413 21.5949 902.478 21.78C898.607 22.1355 893.071 22.6146 886.415 23.061C879.76 23.5099 871.985 23.9265 863.646 24.2209C855.307 24.5182 846.404 24.6686 837.5 24.6774C828.596 24.6686 819.693 24.5182 811.354 24.2209C803.015 23.9265 795.24 23.5099 788.585 23.061C781.929 22.6146 776.393 22.1355 772.522 21.78C770.587 21.5949 769.067 21.4492 768.03 21.35C766.995 21.2457 766.444 21.19 766.442 21.19V21.1888C766.442 21.1888 765.89 21.1343 764.855 21.0296C763.821 20.9166 762.301 20.7533 760.37 20.5439C759.051 20.3973 757.544 20.2214 755.865 20.0162C755.107 19.9241 754.315 19.8278 753.49 19.7231C750.789 19.3881 747.737 18.9903 744.416 18.5171C740.735 17.9979 736.715 17.3865 732.461 16.6788C731.686 16.549 730.903 16.415 730.112 16.2768C723.554 15.1504 716.511 13.7936 709.35 12.1731C708.579 11.9972 707.809 11.8213 707.038 11.6371C703.638 10.8456 700.221 9.99137 696.829 9.07431C693.437 8.15724 690.066 7.18156 686.771 6.14306C686.026 5.90856 685.28 5.66987 684.543 5.427C680.406 4.07862 676.398 2.62974 672.617 1.09293C671.734 0.736994 670.858 0.372688 670 0V0.665811C670.783 1.00081 671.579 1.33162 672.387 1.65825C676.118 3.17831 680.071 4.60625 684.141 5.93787C685.021 6.231 685.908 6.51156 686.8 6.78793C690.037 7.8055 693.341 8.76444 696.67 9.66057C699.999 10.5609 703.349 11.3984 706.682 12.1814C707.604 12.395 708.521 12.6044 709.434 12.8138C716.448 14.3966 723.349 15.7282 729.789 16.8379C730.731 17.0012 731.661 17.1604 732.582 17.3111C736.761 18.0104 740.71 18.6093 744.332 19.1201C747.569 19.5808 750.551 19.9702 753.197 20.3052C754.181 20.4266 755.119 20.5397 756.011 20.6486C757.607 20.8412 759.043 21.0045 760.303 21.1469C762.234 21.3604 763.754 21.5237 764.788 21.6368C765.827 21.7415 766.38 21.7959 766.38 21.7959L766.423 21.3717L766.38 21.7972C766.38 21.7972 766.933 21.8529 767.97 21.9576C769.007 22.0568 770.529 22.2025 772.466 22.388C776.341 22.7436 781.882 23.2235 788.544 23.6703C795.205 24.1192 802.987 24.5367 811.332 24.831C819.678 25.1288 828.589 25.2791 837.5 25.2879C846.411 25.2791 855.322 25.1288 863.668 24.831C872.013 24.5367 879.795 24.1192 886.456 23.6703C893.118 23.2235 898.659 22.7436 902.534 22.388C904.471 22.2025 905.993 22.0568 907.03 21.9576C908.067 21.8529 908.62 21.7972 908.62 21.7972L908.577 21.3717L908.62 21.7959C908.62 21.7959 909.173 21.7415 910.212 21.6368C911.246 21.5237 912.766 21.3604 914.697 21.1469C915.957 21.0045 917.393 20.8412 918.989 20.6486C919.881 20.5397 920.819 20.4266 921.803 20.3052C924.449 19.9702 927.431 19.5808 930.668 19.1201C934.29 18.6093 938.239 18.0104 942.418 17.3111C943.339 17.1604 944.269 17.0012 945.211 16.8379C951.651 15.7282 958.552 14.3966 965.566 12.8138C966.479 12.6044 967.396 12.395 968.318 12.1814C971.651 11.3984 975.001 10.5609 978.33 9.66057C981.659 8.76444 984.963 7.8055 988.2 6.78793C989.092 6.51156 989.979 6.231 990.859 5.93787C994.929 4.60625 998.882 3.17831 1002.61 1.65825C1003.42 1.33162 1004.22 1.00081 1005 0.665811V0C1004.14 0.372688 1003.27 0.736994 1002.38 1.09293C998.602 2.62974 994.594 4.07862 990.457 5.427Z" fill="#424243" class="tross" />
    <path d="M1660.46 5.427C1659.72 5.66987 1658.97 5.90856 1658.23 6.14306C1654.93 7.18156 1651.56 8.15724 1648.17 9.07431C1644.78 9.99137 1641.36 10.8456 1637.97 11.6371C1637.2 11.8171 1636.42 11.9972 1635.65 12.1731C1628.49 13.7894 1621.45 15.1504 1614.89 16.2768C1614.1 16.415 1613.31 16.549 1612.54 16.6788C1608.28 17.3865 1604.26 17.9979 1600.58 18.5171C1597.26 18.9903 1594.21 19.3881 1591.51 19.7231C1590.68 19.8278 1589.89 19.9241 1589.14 20.0162C1587.46 20.2214 1585.95 20.3973 1584.63 20.5439C1582.7 20.7533 1581.18 20.9166 1580.14 21.0296C1579.11 21.1343 1578.56 21.1888 1578.56 21.1888V21.19C1578.56 21.19 1578 21.2457 1576.97 21.35C1575.93 21.4492 1574.41 21.5949 1572.48 21.78C1568.61 22.1355 1563.07 22.6146 1556.42 23.061C1549.76 23.5099 1541.99 23.9265 1533.65 24.2209C1525.31 24.5182 1516.4 24.6686 1507.5 24.6774C1498.6 24.6686 1489.69 24.5182 1481.35 24.2209C1473.01 23.9265 1465.24 23.5099 1458.58 23.061C1451.93 22.6146 1446.39 22.1355 1442.52 21.78C1440.59 21.5949 1439.07 21.4492 1438.03 21.35C1437 21.2457 1436.44 21.19 1436.44 21.19V21.1888C1436.44 21.1888 1435.89 21.1343 1434.86 21.0296C1433.82 20.9166 1432.3 20.7533 1430.37 20.5439C1429.05 20.3973 1427.54 20.2214 1425.86 20.0162C1425.11 19.9241 1424.32 19.8278 1423.49 19.7231C1420.79 19.3881 1417.74 18.9903 1414.42 18.5171C1410.74 17.9979 1406.72 17.3865 1402.46 16.6788C1401.69 16.549 1400.9 16.415 1400.11 16.2768C1393.55 15.1504 1386.51 13.7936 1379.35 12.1731C1378.58 11.9972 1377.81 11.8213 1377.04 11.6371C1373.64 10.8456 1370.22 9.99137 1366.83 9.07431C1363.44 8.15724 1360.07 7.18156 1356.77 6.14306C1356.03 5.90856 1355.28 5.66987 1354.54 5.427C1350.41 4.07862 1346.4 2.62974 1342.62 1.09293C1341.73 0.736994 1340.86 0.372688 1340 0V0.665811C1340.78 1.00081 1341.58 1.33162 1342.39 1.65825C1346.12 3.17831 1350.07 4.60625 1354.14 5.93787C1355.02 6.231 1355.91 6.51156 1356.8 6.78793C1360.04 7.8055 1363.34 8.76444 1366.67 9.66057C1370 10.5609 1373.35 11.3984 1376.68 12.1814C1377.6 12.395 1378.52 12.6044 1379.43 12.8138C1386.45 14.3966 1393.35 15.7282 1399.79 16.8379C1400.73 17.0012 1401.66 17.1604 1402.58 17.3111C1406.76 18.0104 1410.71 18.6093 1414.33 19.1201C1417.57 19.5808 1420.55 19.9702 1423.2 20.3052C1424.18 20.4266 1425.12 20.5397 1426.01 20.6486C1427.61 20.8412 1429.04 21.0045 1430.3 21.1469C1432.23 21.3604 1433.75 21.5237 1434.79 21.6368C1435.83 21.7415 1436.38 21.7959 1436.38 21.7959L1436.42 21.3717L1436.38 21.7972C1436.38 21.7972 1436.93 21.8529 1437.97 21.9576C1439.01 22.0568 1440.53 22.2025 1442.47 22.388C1446.34 22.7436 1451.88 23.2235 1458.54 23.6703C1465.2 24.1192 1472.99 24.5367 1481.33 24.831C1489.68 25.1288 1498.59 25.2791 1507.5 25.2879C1516.41 25.2791 1525.32 25.1288 1533.67 24.831C1542.01 24.5367 1549.8 24.1192 1556.46 23.6703C1563.12 23.2235 1568.66 22.7436 1572.53 22.388C1574.47 22.2025 1575.99 22.0568 1577.03 21.9576C1578.07 21.8529 1578.62 21.7972 1578.62 21.7972L1578.58 21.3717L1578.62 21.7959C1578.62 21.7959 1579.17 21.7415 1580.21 21.6368C1581.25 21.5237 1582.77 21.3604 1584.7 21.1469C1585.96 21.0045 1587.39 20.8412 1588.99 20.6486C1589.88 20.5397 1590.82 20.4266 1591.8 20.3052C1594.45 19.9702 1597.43 19.5808 1600.67 19.1201C1604.29 18.6093 1608.24 18.0104 1612.42 17.3111C1613.34 17.1604 1614.27 17.0012 1615.21 16.8379C1621.65 15.7282 1628.55 14.3966 1635.57 12.8138C1636.48 12.6044 1637.4 12.395 1638.32 12.1814C1641.65 11.3984 1645 10.5609 1648.33 9.66057C1651.66 8.76444 1654.96 7.8055 1658.2 6.78793C1659.09 6.51156 1659.98 6.231 1660.86 5.93787C1664.93 4.60625 1668.88 3.17831 1672.61 1.65825C1673.42 1.33162 1674.22 1.00081 1675 0.665811V0C1674.14 0.372688 1673.27 0.736994 1672.38 1.09293C1668.6 2.62974 1664.59 4.07862 1660.46 5.427Z" fill="#424243" class="tross" />
    <path d="M655.457 5.427C654.72 5.66987 653.974 5.90856 653.229 6.14306C649.934 7.18156 646.563 8.15724 643.171 9.07431C639.779 9.99137 636.362 10.8456 632.966 11.6371C632.195 11.8171 631.421 11.9972 630.65 12.1731C623.489 13.7894 616.446 15.1504 609.888 16.2768C609.097 16.415 608.314 16.549 607.539 16.6788C603.285 17.3865 599.265 17.9979 595.584 18.5171C592.263 18.9903 589.211 19.3881 586.51 19.7231C585.685 19.8278 584.893 19.9241 584.135 20.0162C582.456 20.2214 580.949 20.3973 579.63 20.5439C577.699 20.7533 576.179 20.9166 575.145 21.0296C574.11 21.1343 573.558 21.1888 573.558 21.1888V21.19C573.556 21.19 573.005 21.2457 571.97 21.35C570.933 21.4492 569.413 21.5949 567.478 21.78C563.607 22.1355 558.071 22.6146 551.415 23.061C544.76 23.5099 536.985 23.9265 528.646 24.2209C520.307 24.5182 511.404 24.6686 502.5 24.6774C493.596 24.6686 484.693 24.5182 476.354 24.2209C468.015 23.9265 460.24 23.5099 453.585 23.061C446.929 22.6146 441.393 22.1355 437.522 21.78C435.587 21.5949 434.067 21.4492 433.03 21.35C431.995 21.2457 431.444 21.19 431.442 21.19V21.1888C431.442 21.1888 430.89 21.1343 429.855 21.0296C428.821 20.9166 427.301 20.7533 425.37 20.5439C424.051 20.3973 422.544 20.2214 420.865 20.0162C420.107 19.9241 419.315 19.8278 418.49 19.7231C415.789 19.3881 412.737 18.9903 409.416 18.5171C405.735 17.9979 401.715 17.3865 397.461 16.6788C396.686 16.549 395.903 16.415 395.112 16.2768C388.554 15.1504 381.511 13.7936 374.35 12.1731C373.579 11.9972 372.809 11.8213 372.038 11.6371C368.638 10.8456 365.221 9.99137 361.829 9.07431C358.437 8.15724 355.066 7.18156 351.771 6.14306C351.026 5.90856 350.28 5.66987 349.543 5.427C345.406 4.07862 341.398 2.62974 337.617 1.09293C336.734 0.736994 335.858 0.372688 335 0V0.665811C335.783 1.00081 336.579 1.33162 337.387 1.65825C341.118 3.17831 345.071 4.60625 349.141 5.93787C350.021 6.231 350.908 6.51156 351.8 6.78793C355.037 7.8055 358.341 8.76444 361.67 9.66057C364.999 10.5609 368.349 11.3984 371.682 12.1814C372.604 12.395 373.521 12.6044 374.434 12.8138C381.448 14.3966 388.349 15.7282 394.789 16.8379C395.731 17.0012 396.661 17.1604 397.582 17.3111C401.761 18.0104 405.71 18.6093 409.332 19.1201C412.569 19.5808 415.551 19.9702 418.197 20.3052C419.181 20.4266 420.119 20.5397 421.011 20.6486C422.607 20.8412 424.043 21.0045 425.303 21.1469C427.234 21.3604 428.754 21.5237 429.788 21.6368C430.827 21.7415 431.38 21.7959 431.38 21.7959L431.423 21.3717L431.38 21.7972C431.38 21.7972 431.933 21.8529 432.97 21.9576C434.007 22.0568 435.529 22.2025 437.466 22.388C441.341 22.7436 446.882 23.2235 453.544 23.6703C460.205 24.1192 467.987 24.5367 476.332 24.831C484.678 25.1288 493.589 25.2791 502.5 25.2879C511.411 25.2791 520.322 25.1288 528.668 24.831C537.013 24.5367 544.795 24.1192 551.456 23.6703C558.118 23.2235 563.659 22.7436 567.534 22.388C569.471 22.2025 570.993 22.0568 572.03 21.9576C573.067 21.8529 573.62 21.7972 573.62 21.7972L573.577 21.3717L573.62 21.7959C573.62 21.7959 574.173 21.7415 575.212 21.6368C576.246 21.5237 577.766 21.3604 579.697 21.1469C580.957 21.0045 582.393 20.8412 583.989 20.6486C584.881 20.5397 585.819 20.4266 586.803 20.3052C589.449 19.9702 592.431 19.5808 595.668 19.1201C599.29 18.6093 603.239 18.0104 607.418 17.3111C608.339 17.1604 609.269 17.0012 610.211 16.8379C616.651 15.7282 623.552 14.3966 630.566 12.8138C631.479 12.6044 632.396 12.395 633.318 12.1814C636.651 11.3984 640.001 10.5609 643.33 9.66057C646.659 8.76444 649.963 7.8055 653.2 6.78793C654.092 6.51156 654.979 6.231 655.859 5.93787C659.929 4.60625 663.882 3.17831 667.613 1.65825C668.421 1.33162 669.217 1.00081 670 0.665811V0C669.142 0.372688 668.266 0.736994 667.383 1.09293C663.602 2.62974 659.594 4.07862 655.457 5.427Z" fill="#424243" class="tross" />
    <path d="M1325.46 5.427C1324.72 5.66987 1323.97 5.90856 1323.23 6.14306C1319.93 7.18156 1316.56 8.15724 1313.17 9.07431C1309.78 9.99137 1306.36 10.8456 1302.97 11.6371C1302.2 11.8171 1301.42 11.9972 1300.65 12.1731C1293.49 13.7894 1286.45 15.1504 1279.89 16.2768C1279.1 16.415 1278.31 16.549 1277.54 16.6788C1273.28 17.3865 1269.26 17.9979 1265.58 18.5171C1262.26 18.9903 1259.21 19.3881 1256.51 19.7231C1255.68 19.8278 1254.89 19.9241 1254.14 20.0162C1252.46 20.2214 1250.95 20.3973 1249.63 20.5439C1247.7 20.7533 1246.18 20.9166 1245.14 21.0296C1244.11 21.1343 1243.56 21.1888 1243.56 21.1888V21.19C1243.56 21.19 1243 21.2457 1241.97 21.35C1240.93 21.4492 1239.41 21.5949 1237.48 21.78C1233.61 22.1355 1228.07 22.6146 1221.42 23.061C1214.76 23.5099 1206.99 23.9265 1198.65 24.2209C1190.31 24.5182 1181.4 24.6686 1172.5 24.6774C1163.6 24.6686 1154.69 24.5182 1146.35 24.2209C1138.01 23.9265 1130.24 23.5099 1123.58 23.061C1116.93 22.6146 1111.39 22.1355 1107.52 21.78C1105.59 21.5949 1104.07 21.4492 1103.03 21.35C1102 21.2457 1101.44 21.19 1101.44 21.19V21.1888C1101.44 21.1888 1100.89 21.1343 1099.86 21.0296C1098.82 20.9166 1097.3 20.7533 1095.37 20.5439C1094.05 20.3973 1092.54 20.2214 1090.86 20.0162C1090.11 19.9241 1089.32 19.8278 1088.49 19.7231C1085.79 19.3881 1082.74 18.9903 1079.42 18.5171C1075.74 17.9979 1071.72 17.3865 1067.46 16.6788C1066.69 16.549 1065.9 16.415 1065.11 16.2768C1058.55 15.1504 1051.51 13.7936 1044.35 12.1731C1043.58 11.9972 1042.81 11.8213 1042.04 11.6371C1038.64 10.8456 1035.22 9.99137 1031.83 9.07431C1028.44 8.15724 1025.07 7.18156 1021.77 6.14306C1021.03 5.90856 1020.28 5.66987 1019.54 5.427C1015.41 4.07862 1011.4 2.62974 1007.62 1.09293C1006.73 0.736994 1005.86 0.372688 1005 0V0.665811C1005.78 1.00081 1006.58 1.33162 1007.39 1.65825C1011.12 3.17831 1015.07 4.60625 1019.14 5.93787C1020.02 6.231 1020.91 6.51156 1021.8 6.78793C1025.04 7.8055 1028.34 8.76444 1031.67 9.66057C1035 10.5609 1038.35 11.3984 1041.68 12.1814C1042.6 12.395 1043.52 12.6044 1044.43 12.8138C1051.45 14.3966 1058.35 15.7282 1064.79 16.8379C1065.73 17.0012 1066.66 17.1604 1067.58 17.3111C1071.76 18.0104 1075.71 18.6093 1079.33 19.1201C1082.57 19.5808 1085.55 19.9702 1088.2 20.3052C1089.18 20.4266 1090.12 20.5397 1091.01 20.6486C1092.61 20.8412 1094.04 21.0045 1095.3 21.1469C1097.23 21.3604 1098.75 21.5237 1099.79 21.6368C1100.83 21.7415 1101.38 21.7959 1101.38 21.7959L1101.42 21.3717L1101.38 21.7972C1101.38 21.7972 1101.93 21.8529 1102.97 21.9576C1104.01 22.0568 1105.53 22.2025 1107.47 22.388C1111.34 22.7436 1116.88 23.2235 1123.54 23.6703C1130.2 24.1192 1137.99 24.5367 1146.33 24.831C1154.68 25.1288 1163.59 25.2791 1172.5 25.2879C1181.41 25.2791 1190.32 25.1288 1198.67 24.831C1207.01 24.5367 1214.8 24.1192 1221.46 23.6703C1228.12 23.2235 1233.66 22.7436 1237.53 22.388C1239.47 22.2025 1240.99 22.0568 1242.03 21.9576C1243.07 21.8529 1243.62 21.7972 1243.62 21.7972L1243.58 21.3717L1243.62 21.7959C1243.62 21.7959 1244.17 21.7415 1245.21 21.6368C1246.25 21.5237 1247.77 21.3604 1249.7 21.1469C1250.96 21.0045 1252.39 20.8412 1253.99 20.6486C1254.88 20.5397 1255.82 20.4266 1256.8 20.3052C1259.45 19.9702 1262.43 19.5808 1265.67 19.1201C1269.29 18.6093 1273.24 18.0104 1277.42 17.3111C1278.34 17.1604 1279.27 17.0012 1280.21 16.8379C1286.65 15.7282 1293.55 14.3966 1300.57 12.8138C1301.48 12.6044 1302.4 12.395 1303.32 12.1814C1306.65 11.3984 1310 10.5609 1313.33 9.66057C1316.66 8.76444 1319.96 7.8055 1323.2 6.78793C1324.09 6.51156 1324.98 6.231 1325.86 5.93787C1329.93 4.60625 1333.88 3.17831 1337.61 1.65825C1338.42 1.33162 1339.22 1.00081 1340 0.665811V0C1339.14 0.372688 1338.27 0.736994 1337.38 1.09293C1333.6 2.62974 1329.59 4.07862 1325.46 5.427Z" fill="#424243" class="tross" />
    <path d="M1995.46 5.427C1994.72 5.66987 1993.97 5.90856 1993.23 6.14306C1989.93 7.18156 1986.56 8.15724 1983.17 9.07431C1979.78 9.99137 1976.36 10.8456 1972.97 11.6371C1972.2 11.8171 1971.42 11.9972 1970.65 12.1731C1963.49 13.7894 1956.45 15.1504 1949.89 16.2768C1949.1 16.415 1948.31 16.549 1947.54 16.6788C1943.28 17.3865 1939.26 17.9979 1935.58 18.5171C1932.26 18.9903 1929.21 19.3881 1926.51 19.7231C1925.68 19.8278 1924.89 19.9241 1924.14 20.0162C1922.46 20.2214 1920.95 20.3973 1919.63 20.5439C1917.7 20.7533 1916.18 20.9166 1915.14 21.0296C1914.11 21.1343 1913.56 21.1888 1913.56 21.1888V21.19C1913.56 21.19 1913 21.2457 1911.97 21.35C1910.93 21.4492 1909.41 21.5949 1907.48 21.78C1903.61 22.1355 1898.07 22.6146 1891.42 23.061C1884.76 23.5099 1876.99 23.9265 1868.65 24.2209C1860.31 24.5182 1851.4 24.6686 1842.5 24.6774C1833.6 24.6686 1824.69 24.5182 1816.35 24.2209C1808.01 23.9265 1800.24 23.5099 1793.58 23.061C1786.93 22.6146 1781.39 22.1355 1777.52 21.78C1775.59 21.5949 1774.07 21.4492 1773.03 21.35C1772 21.2457 1771.44 21.19 1771.44 21.19V21.1888C1771.44 21.1888 1770.89 21.1343 1769.86 21.0296C1768.82 20.9166 1767.3 20.7533 1765.37 20.5439C1764.05 20.3973 1762.54 20.2214 1760.86 20.0162C1760.11 19.9241 1759.32 19.8278 1758.49 19.7231C1755.79 19.3881 1752.74 18.9903 1749.42 18.5171C1745.74 17.9979 1741.72 17.3865 1737.46 16.6788C1736.69 16.549 1735.9 16.415 1735.11 16.2768C1728.55 15.1504 1721.51 13.7936 1714.35 12.1731C1713.58 11.9972 1712.81 11.8213 1712.04 11.6371C1708.64 10.8456 1705.22 9.99137 1701.83 9.07431C1698.44 8.15724 1695.07 7.18156 1691.77 6.14306C1691.03 5.90856 1690.28 5.66987 1689.54 5.427C1685.41 4.07862 1681.4 2.62974 1677.62 1.09293C1676.73 0.736994 1675.86 0.372688 1675 0V0.665811C1675.78 1.00081 1676.58 1.33162 1677.39 1.65825C1681.12 3.17831 1685.07 4.60625 1689.14 5.93787C1690.02 6.231 1690.91 6.51156 1691.8 6.78793C1695.04 7.8055 1698.34 8.76444 1701.67 9.66057C1705 10.5609 1708.35 11.3984 1711.68 12.1814C1712.6 12.395 1713.52 12.6044 1714.43 12.8138C1721.45 14.3966 1728.35 15.7282 1734.79 16.8379C1735.73 17.0012 1736.66 17.1604 1737.58 17.3111C1741.76 18.0104 1745.71 18.6093 1749.33 19.1201C1752.57 19.5808 1755.55 19.9702 1758.2 20.3052C1759.18 20.4266 1760.12 20.5397 1761.01 20.6486C1762.61 20.8412 1764.04 21.0045 1765.3 21.1469C1767.23 21.3604 1768.75 21.5237 1769.79 21.6368C1770.83 21.7415 1771.38 21.7959 1771.38 21.7959L1771.42 21.3717L1771.38 21.7972C1771.38 21.7972 1771.93 21.8529 1772.97 21.9576C1774.01 22.0568 1775.53 22.2025 1777.47 22.388C1781.34 22.7436 1786.88 23.2235 1793.54 23.6703C1800.2 24.1192 1807.99 24.5367 1816.33 24.831C1824.68 25.1288 1833.59 25.2791 1842.5 25.2879C1851.41 25.2791 1860.32 25.1288 1868.67 24.831C1877.01 24.5367 1884.8 24.1192 1891.46 23.6703C1898.12 23.2235 1903.66 22.7436 1907.53 22.388C1909.47 22.2025 1910.99 22.0568 1912.03 21.9576C1913.07 21.8529 1913.62 21.7972 1913.62 21.7972L1913.58 21.3717L1913.62 21.7959C1913.62 21.7959 1914.17 21.7415 1915.21 21.6368C1916.25 21.5237 1917.77 21.3604 1919.7 21.1469C1920.96 21.0045 1922.39 20.8412 1923.99 20.6486C1924.88 20.5397 1925.82 20.4266 1926.8 20.3052C1929.45 19.9702 1932.43 19.5808 1935.67 19.1201C1939.29 18.6093 1943.24 18.0104 1947.42 17.3111C1948.34 17.1604 1949.27 17.0012 1950.21 16.8379C1956.65 15.7282 1963.55 14.3966 1970.57 12.8138C1971.48 12.6044 1972.4 12.395 1973.32 12.1814C1976.65 11.3984 1980 10.5609 1983.33 9.66057C1986.66 8.76444 1989.96 7.8055 1993.2 6.78793C1994.09 6.51156 1994.98 6.231 1995.86 5.93787C1999.93 4.60625 2003.88 3.17831 2007.61 1.65825C2008.42 1.33162 2009.22 1.00081 2010 0.665811V0C2009.14 0.372688 2008.27 0.736994 2007.38 1.09293C2003.6 2.62974 1999.59 4.07862 1995.46 5.427Z" fill="#424243" class="tross" />
    <style>
        .lamp{
            animation: lamp 2s infinite both;
            fill: currentColor;
            filter: drop-shadow(0px 0px 0px rgba(0,0,0,0));
        }

        .lamp:nth-of-type(7n + 1){
            animation-delay: 1s;
            animation-duration: 1.1s;
        }

        .lamp:nth-of-type(7n + 2){
            animation-delay: 2s;
            animation-duration: 1.2s;
        }

        .lamp:nth-of-type(7n + 3){
            animation-delay: 3s;
            animation-duration: 1.3s;
        }

        .lamp:nth-of-type(7n + 4){
            animation-delay: 4s;
            animation-duration: 1.4s;
        }

        .lamp:nth-of-type(7n + 5){
            animation-delay: 5s;
            animation-duration: 1.5s;
        }

        .lamp:nth-of-type(7n + 6){
            animation-delay: 6s;
            animation-duration: 1.6s;
        }

        @keyframes lamp {
            0%, 100% {
                opacity: 0.5;
                filter: drop-shadow(0px 0px 0px rgba(0,0,0,0));
            }
            50% {
                opacity: 1;
                filter: drop-shadow(0px 0px 5px currentColor);
            }
        }
    </style>
</svg>